<?xml version="1.0" encoding="UTF-8" standalone="no"?>
<!DOCTYPE svg PUBLIC "-//W3C//DTD SVG 1.1//EN"
 "http://www.w3.org/Graphics/SVG/1.1/DTD/svg11.dtd">
<!-- Generated by graphviz version 2.38.0 (20140413.2041)
 -->
<!-- Title: Tree Pages: 1 -->
<svg width="540pt" height="314pt"
 viewBox="0.00 0.00 540.00 314.00" xmlns="http://www.w3.org/2000/svg" xmlns:xlink="http://www.w3.org/1999/xlink">
<g id="graph0" class="graph" transform="scale(1 1) rotate(0) translate(4 310)">
<title>Tree</title>
<polygon fill="white" stroke="none" points="-4,4 -4,-310 536,-310 536,4 -4,4"/>
<!-- 0 -->
<g id="node1" class="node"><title>0</title>
<polygon fill="none" stroke="black" points="330.5,-306 205.5,-306 205.5,-223 330.5,-223 330.5,-306"/>
<text text-anchor="middle" x="268" y="-290.8" font-family="Times,serif" font-size="14.00">year_month &lt;= 0.5</text>
<text text-anchor="middle" x="268" y="-275.8" font-family="Times,serif" font-size="14.00">gini = 0.3206</text>
<text text-anchor="middle" x="268" y="-260.8" font-family="Times,serif" font-size="14.00">samples = 2274</text>
<text text-anchor="middle" x="268" y="-245.8" font-family="Times,serif" font-size="14.00">value = [1818, 456]</text>
<text text-anchor="middle" x="268" y="-230.8" font-family="Times,serif" font-size="14.00">class = normal</text>
</g>
<!-- 1 -->
<g id="node2" class="node"><title>1</title>
<polygon fill="none" stroke="black" points="277.5,-187 80.5,-187 80.5,-104 277.5,-104 277.5,-187"/>
<text text-anchor="middle" x="179" y="-171.8" font-family="Times,serif" font-size="14.00">aircraft__customer__icao &lt;= 0.5</text>
<text text-anchor="middle" x="179" y="-156.8" font-family="Times,serif" font-size="14.00">gini = 0.3424</text>
<text text-anchor="middle" x="179" y="-141.8" font-family="Times,serif" font-size="14.00">samples = 1587</text>
<text text-anchor="middle" x="179" y="-126.8" font-family="Times,serif" font-size="14.00">value = [1239, 348]</text>
<text text-anchor="middle" x="179" y="-111.8" font-family="Times,serif" font-size="14.00">class = normal</text>
</g>
<!-- 0&#45;&gt;1 -->
<g id="edge1" class="edge"><title>0&#45;&gt;1</title>
<path fill="none" stroke="black" d="M237.122,-222.907C230.288,-213.923 222.979,-204.315 215.931,-195.05"/>
<polygon fill="black" stroke="black" points="218.664,-192.861 209.824,-187.021 213.092,-197.099 218.664,-192.861"/>
<text text-anchor="middle" x="206.456" y="-208.093" font-family="Times,serif" font-size="14.00">True</text>
</g>
<!-- 4 -->
<g id="node5" class="node"><title>4</title>
<polygon fill="none" stroke="black" points="418.5,-187 295.5,-187 295.5,-104 418.5,-104 418.5,-187"/>
<text text-anchor="middle" x="357" y="-171.8" font-family="Times,serif" font-size="14.00">year_month &lt;= 1.5</text>
<text text-anchor="middle" x="357" y="-156.8" font-family="Times,serif" font-size="14.00">gini = 0.265</text>
<text text-anchor="middle" x="357" y="-141.8" font-family="Times,serif" font-size="14.00">samples = 687</text>
<text text-anchor="middle" x="357" y="-126.8" font-family="Times,serif" font-size="14.00">value = [579, 108]</text>
<text text-anchor="middle" x="357" y="-111.8" font-family="Times,serif" font-size="14.00">class = normal</text>
</g>
<!-- 0&#45;&gt;4 -->
<g id="edge4" class="edge"><title>0&#45;&gt;4</title>
<path fill="none" stroke="black" d="M298.878,-222.907C305.712,-213.923 313.021,-204.315 320.069,-195.05"/>
<polygon fill="black" stroke="black" points="322.908,-197.099 326.176,-187.021 317.336,-192.861 322.908,-197.099"/>
<text text-anchor="middle" x="329.544" y="-208.093" font-family="Times,serif" font-size="14.00">False</text>
</g>
<!-- 2 -->
<g id="node3" class="node"><title>2</title>
<polygon fill="none" stroke="black" points="112,-68 0,-68 0,-0 112,-0 112,-68"/>
<text text-anchor="middle" x="56" y="-52.8" font-family="Times,serif" font-size="14.00">gini = 0.1596</text>
<text text-anchor="middle" x="56" y="-37.8" font-family="Times,serif" font-size="14.00">samples = 366</text>
<text text-anchor="middle" x="56" y="-22.8" font-family="Times,serif" font-size="14.00">value = [32, 334]</text>
<text text-anchor="middle" x="56" y="-7.8" font-family="Times,serif" font-size="14.00">class = weird</text>
</g>
<!-- 1&#45;&gt;2 -->
<g id="edge2" class="edge"><title>1&#45;&gt;2</title>
<path fill="none" stroke="black" d="M133.199,-103.726C122.647,-94.3318 111.433,-84.349 100.918,-74.9883"/>
<polygon fill="black" stroke="black" points="103.201,-72.3347 93.405,-68.2996 98.5469,-77.5631 103.201,-72.3347"/>
</g>
<!-- 3 -->
<g id="node4" class="node"><title>3</title>
<polygon fill="none" stroke="black" points="249.5,-68 130.5,-68 130.5,-0 249.5,-0 249.5,-68"/>
<text text-anchor="middle" x="190" y="-52.8" font-family="Times,serif" font-size="14.00">gini = 0.0227</text>
<text text-anchor="middle" x="190" y="-37.8" font-family="Times,serif" font-size="14.00">samples = 1221</text>
<text text-anchor="middle" x="190" y="-22.8" font-family="Times,serif" font-size="14.00">value = [1207, 14]</text>
<text text-anchor="middle" x="190" y="-7.8" font-family="Times,serif" font-size="14.00">class = normal</text>
</g>
<!-- 1&#45;&gt;3 -->
<g id="edge3" class="edge"><title>1&#45;&gt;3</title>
<path fill="none" stroke="black" d="M183.096,-103.726C183.93,-95.4263 184.81,-86.6671 185.652,-78.2834"/>
<polygon fill="black" stroke="black" points="189.138,-78.5994 186.655,-68.2996 182.173,-77.8997 189.138,-78.5994"/>
</g>
<!-- 5 -->
<g id="node6" class="node"><title>5</title>
<polygon fill="none" stroke="black" points="402,-68 290,-68 290,-0 402,-0 402,-68"/>
<text text-anchor="middle" x="346" y="-52.8" font-family="Times,serif" font-size="14.00">gini = 0.2661</text>
<text text-anchor="middle" x="346" y="-37.8" font-family="Times,serif" font-size="14.00">samples = 367</text>
<text text-anchor="middle" x="346" y="-22.8" font-family="Times,serif" font-size="14.00">value = [309, 58]</text>
<text text-anchor="middle" x="346" y="-7.8" font-family="Times,serif" font-size="14.00">class = normal</text>
</g>
<!-- 4&#45;&gt;5 -->
<g id="edge5" class="edge"><title>4&#45;&gt;5</title>
<path fill="none" stroke="black" d="M352.904,-103.726C352.07,-95.4263 351.19,-86.6671 350.348,-78.2834"/>
<polygon fill="black" stroke="black" points="353.827,-77.8997 349.345,-68.2996 346.862,-78.5994 353.827,-77.8997"/>
</g>
<!-- 6 -->
<g id="node7" class="node"><title>6</title>
<polygon fill="none" stroke="black" points="532,-68 420,-68 420,-0 532,-0 532,-68"/>
<text text-anchor="middle" x="476" y="-52.8" font-family="Times,serif" font-size="14.00">gini = 0.2637</text>
<text text-anchor="middle" x="476" y="-37.8" font-family="Times,serif" font-size="14.00">samples = 320</text>
<text text-anchor="middle" x="476" y="-22.8" font-family="Times,serif" font-size="14.00">value = [270, 50]</text>
<text text-anchor="middle" x="476" y="-7.8" font-family="Times,serif" font-size="14.00">class = normal</text>
</g>
<!-- 4&#45;&gt;6 -->
<g id="edge6" class="edge"><title>4&#45;&gt;6</title>
<path fill="none" stroke="black" d="M401.311,-103.726C411.422,-94.423 422.159,-84.5428 432.246,-75.2612"/>
<polygon fill="black" stroke="black" points="434.823,-77.6464 439.811,-68.2996 430.083,-72.4953 434.823,-77.6464"/>
</g>
</g>
</svg>
