<?xml version="1.0" encoding="utf-8" standalone="no"?>
<!DOCTYPE svg PUBLIC "-//W3C//DTD SVG 1.1//EN"
  "http://www.w3.org/Graphics/SVG/1.1/DTD/svg11.dtd">
<!-- Created with matplotlib (http://matplotlib.org/) -->
<svg height="216pt" version="1.1" viewBox="0 0 864 216" width="864pt" xmlns="http://www.w3.org/2000/svg" xmlns:xlink="http://www.w3.org/1999/xlink">
 <defs>
  <style type="text/css">
*{stroke-linecap:butt;stroke-linejoin:round;}
  </style>
 </defs>
 <g id="figure_1">
  <g id="patch_1">
   <path d="M 0 216 
L 864 216 
L 864 0 
L 0 0 
z
" style="fill:#ffffff;"/>
  </g>
  <g id="axes_1">
   <g id="patch_2">
    <path d="M 40.05 174.2 
L 209.8 174.2 
L 209.8 24.8 
L 40.05 24.8 
z
" style="fill:#ffffff;"/>
   </g>
   <g id="patch_3">
    <path clip-path="url(#p34d2a14b95)" d="M 47.765909 174.2 
L 54.195833 174.2 
L 54.195833 171.612987 
L 47.765909 171.612987 
z
" style="fill:#1f77b4;opacity:0.4;"/>
   </g>
   <g id="patch_4">
    <path clip-path="url(#p34d2a14b95)" d="M 54.195833 174.2 
L 60.625758 174.2 
L 60.625758 169.025974 
L 54.195833 169.025974 
z
" style="fill:#1f77b4;opacity:0.4;"/>
   </g>
   <g id="patch_5">
    <path clip-path="url(#p34d2a14b95)" d="M 60.625758 174.2 
L 67.055682 174.2 
L 67.055682 172.906494 
L 60.625758 172.906494 
z
" style="fill:#1f77b4;opacity:0.4;"/>
   </g>
   <g id="patch_6">
    <path clip-path="url(#p34d2a14b95)" d="M 67.055682 174.2 
L 73.485606 174.2 
L 73.485606 174.2 
L 67.055682 174.2 
z
" style="fill:#1f77b4;opacity:0.4;"/>
   </g>
   <g id="patch_7">
    <path clip-path="url(#p34d2a14b95)" d="M 73.485606 174.2 
L 79.91553 174.2 
L 79.91553 174.2 
L 73.485606 174.2 
z
" style="fill:#1f77b4;opacity:0.4;"/>
   </g>
   <g id="patch_8">
    <path clip-path="url(#p34d2a14b95)" d="M 79.91553 174.2 
L 86.345455 174.2 
L 86.345455 174.2 
L 79.91553 174.2 
z
" style="fill:#1f77b4;opacity:0.4;"/>
   </g>
   <g id="patch_9">
    <path clip-path="url(#p34d2a14b95)" d="M 86.345455 174.2 
L 92.775379 174.2 
L 92.775379 172.906494 
L 86.345455 172.906494 
z
" style="fill:#1f77b4;opacity:0.4;"/>
   </g>
   <g id="patch_10">
    <path clip-path="url(#p34d2a14b95)" d="M 92.775379 174.2 
L 99.205303 174.2 
L 99.205303 165.145455 
L 92.775379 165.145455 
z
" style="fill:#1f77b4;opacity:0.4;"/>
   </g>
   <g id="patch_11">
    <path clip-path="url(#p34d2a14b95)" d="M 99.205303 174.2 
L 105.635227 174.2 
L 105.635227 147.036364 
L 99.205303 147.036364 
z
" style="fill:#1f77b4;opacity:0.4;"/>
   </g>
   <g id="patch_12">
    <path clip-path="url(#p34d2a14b95)" d="M 105.635227 174.2 
L 112.065152 174.2 
L 112.065152 114.698701 
L 105.635227 114.698701 
z
" style="fill:#1f77b4;opacity:0.4;"/>
   </g>
   <g id="patch_13">
    <path clip-path="url(#p34d2a14b95)" d="M 112.065152 174.2 
L 118.495076 174.2 
L 118.495076 132.807792 
L 112.065152 132.807792 
z
" style="fill:#1f77b4;opacity:0.4;"/>
   </g>
   <g id="patch_14">
    <path clip-path="url(#p34d2a14b95)" d="M 118.495076 174.2 
L 124.925 174.2 
L 124.925 82.361039 
L 118.495076 82.361039 
z
" style="fill:#1f77b4;opacity:0.4;"/>
   </g>
   <g id="patch_15">
    <path clip-path="url(#p34d2a14b95)" d="M 124.925 174.2 
L 131.354924 174.2 
L 131.354924 81.067532 
L 124.925 81.067532 
z
" style="fill:#1f77b4;opacity:0.4;"/>
   </g>
   <g id="patch_16">
    <path clip-path="url(#p34d2a14b95)" d="M 131.354924 174.2 
L 137.784848 174.2 
L 137.784848 69.425974 
L 131.354924 69.425974 
z
" style="fill:#1f77b4;opacity:0.4;"/>
   </g>
   <g id="patch_17">
    <path clip-path="url(#p34d2a14b95)" d="M 137.784848 174.2 
L 144.214773 174.2 
L 144.214773 31.914286 
L 137.784848 31.914286 
z
" style="fill:#1f77b4;opacity:0.4;"/>
   </g>
   <g id="patch_18">
    <path clip-path="url(#p34d2a14b95)" d="M 144.214773 174.2 
L 150.644697 174.2 
L 150.644697 104.350649 
L 144.214773 104.350649 
z
" style="fill:#1f77b4;opacity:0.4;"/>
   </g>
   <g id="patch_19">
    <path clip-path="url(#p34d2a14b95)" d="M 150.644697 174.2 
L 157.074621 174.2 
L 157.074621 72.012987 
L 150.644697 72.012987 
z
" style="fill:#1f77b4;opacity:0.4;"/>
   </g>
   <g id="patch_20">
    <path clip-path="url(#p34d2a14b95)" d="M 157.074621 174.2 
L 163.504545 174.2 
L 163.504545 126.34026 
L 157.074621 126.34026 
z
" style="fill:#1f77b4;opacity:0.4;"/>
   </g>
   <g id="patch_21">
    <path clip-path="url(#p34d2a14b95)" d="M 163.504545 174.2 
L 169.93447 174.2 
L 169.93447 115.992208 
L 163.504545 115.992208 
z
" style="fill:#1f77b4;opacity:0.4;"/>
   </g>
   <g id="patch_22">
    <path clip-path="url(#p34d2a14b95)" d="M 169.93447 174.2 
L 176.364394 174.2 
L 176.364394 131.514286 
L 169.93447 131.514286 
z
" style="fill:#1f77b4;opacity:0.4;"/>
   </g>
   <g id="patch_23">
    <path clip-path="url(#p34d2a14b95)" d="M 176.364394 174.2 
L 182.794318 174.2 
L 182.794318 147.036364 
L 176.364394 147.036364 
z
" style="fill:#1f77b4;opacity:0.4;"/>
   </g>
   <g id="patch_24">
    <path clip-path="url(#p34d2a14b95)" d="M 182.794318 174.2 
L 189.224242 174.2 
L 189.224242 154.797403 
L 182.794318 154.797403 
z
" style="fill:#1f77b4;opacity:0.4;"/>
   </g>
   <g id="patch_25">
    <path clip-path="url(#p34d2a14b95)" d="M 189.224242 174.2 
L 195.654167 174.2 
L 195.654167 170.319481 
L 189.224242 170.319481 
z
" style="fill:#1f77b4;opacity:0.4;"/>
   </g>
   <g id="patch_26">
    <path clip-path="url(#p34d2a14b95)" d="M 195.654167 174.2 
L 202.084091 174.2 
L 202.084091 166.438961 
L 195.654167 166.438961 
z
" style="fill:#1f77b4;opacity:0.4;"/>
   </g>
   <g id="matplotlib.axis_1">
    <g id="xtick_1">
     <g id="line2d_1">
      <defs>
       <path d="M 0 0 
L 0 3.5 
" id="md911714d02" style="stroke:#000000;stroke-width:0.8;"/>
      </defs>
      <g>
       <use style="stroke:#000000;stroke-width:0.8;" x="62.559566" xlink:href="#md911714d02" y="174.2"/>
      </g>
     </g>
     <g id="text_1">
      <!-- 0 -->
      <defs>
       <path d="M 31.78125 66.40625 
Q 24.171875 66.40625 20.328125 58.90625 
Q 16.5 51.421875 16.5 36.375 
Q 16.5 21.390625 20.328125 13.890625 
Q 24.171875 6.390625 31.78125 6.390625 
Q 39.453125 6.390625 43.28125 13.890625 
Q 47.125 21.390625 47.125 36.375 
Q 47.125 51.421875 43.28125 58.90625 
Q 39.453125 66.40625 31.78125 66.40625 
z
M 31.78125 74.21875 
Q 44.046875 74.21875 50.515625 64.515625 
Q 56.984375 54.828125 56.984375 36.375 
Q 56.984375 17.96875 50.515625 8.265625 
Q 44.046875 -1.421875 31.78125 -1.421875 
Q 19.53125 -1.421875 13.0625 8.265625 
Q 6.59375 17.96875 6.59375 36.375 
Q 6.59375 54.828125 13.0625 64.515625 
Q 19.53125 74.21875 31.78125 74.21875 
z
" id="DejaVuSans-30"/>
      </defs>
      <g transform="translate(59.378316 188.798438)scale(0.1 -0.1)">
       <use xlink:href="#DejaVuSans-30"/>
      </g>
     </g>
    </g>
    <g id="xtick_2">
     <g id="line2d_2">
      <g>
       <use style="stroke:#000000;stroke-width:0.8;" x="123.489515" xlink:href="#md911714d02" y="174.2"/>
      </g>
     </g>
     <g id="text_2">
      <!-- 5 -->
      <defs>
       <path d="M 10.796875 72.90625 
L 49.515625 72.90625 
L 49.515625 64.59375 
L 19.828125 64.59375 
L 19.828125 46.734375 
Q 21.96875 47.46875 24.109375 47.828125 
Q 26.265625 48.1875 28.421875 48.1875 
Q 40.625 48.1875 47.75 41.5 
Q 54.890625 34.8125 54.890625 23.390625 
Q 54.890625 11.625 47.5625 5.09375 
Q 40.234375 -1.421875 26.90625 -1.421875 
Q 22.3125 -1.421875 17.546875 -0.640625 
Q 12.796875 0.140625 7.71875 1.703125 
L 7.71875 11.625 
Q 12.109375 9.234375 16.796875 8.0625 
Q 21.484375 6.890625 26.703125 6.890625 
Q 35.15625 6.890625 40.078125 11.328125 
Q 45.015625 15.765625 45.015625 23.390625 
Q 45.015625 31 40.078125 35.4375 
Q 35.15625 39.890625 26.703125 39.890625 
Q 22.75 39.890625 18.8125 39.015625 
Q 14.890625 38.140625 10.796875 36.28125 
z
" id="DejaVuSans-35"/>
      </defs>
      <g transform="translate(120.308265 188.798438)scale(0.1 -0.1)">
       <use xlink:href="#DejaVuSans-35"/>
      </g>
     </g>
    </g>
    <g id="xtick_3">
     <g id="line2d_3">
      <g>
       <use style="stroke:#000000;stroke-width:0.8;" x="184.419463" xlink:href="#md911714d02" y="174.2"/>
      </g>
     </g>
     <g id="text_3">
      <!-- 10 -->
      <defs>
       <path d="M 12.40625 8.296875 
L 28.515625 8.296875 
L 28.515625 63.921875 
L 10.984375 60.40625 
L 10.984375 69.390625 
L 28.421875 72.90625 
L 38.28125 72.90625 
L 38.28125 8.296875 
L 54.390625 8.296875 
L 54.390625 0 
L 12.40625 0 
z
" id="DejaVuSans-31"/>
      </defs>
      <g transform="translate(178.056963 188.798438)scale(0.1 -0.1)">
       <use xlink:href="#DejaVuSans-31"/>
       <use x="63.623047" xlink:href="#DejaVuSans-30"/>
      </g>
     </g>
    </g>
    <g id="text_4">
     <!-- value -->
     <defs>
      <path d="M 2.984375 54.6875 
L 12.5 54.6875 
L 29.59375 8.796875 
L 46.6875 54.6875 
L 56.203125 54.6875 
L 35.6875 0 
L 23.484375 0 
z
" id="DejaVuSans-76"/>
      <path d="M 34.28125 27.484375 
Q 23.390625 27.484375 19.1875 25 
Q 14.984375 22.515625 14.984375 16.5 
Q 14.984375 11.71875 18.140625 8.90625 
Q 21.296875 6.109375 26.703125 6.109375 
Q 34.1875 6.109375 38.703125 11.40625 
Q 43.21875 16.703125 43.21875 25.484375 
L 43.21875 27.484375 
z
M 52.203125 31.203125 
L 52.203125 0 
L 43.21875 0 
L 43.21875 8.296875 
Q 40.140625 3.328125 35.546875 0.953125 
Q 30.953125 -1.421875 24.3125 -1.421875 
Q 15.921875 -1.421875 10.953125 3.296875 
Q 6 8.015625 6 15.921875 
Q 6 25.140625 12.171875 29.828125 
Q 18.359375 34.515625 30.609375 34.515625 
L 43.21875 34.515625 
L 43.21875 35.40625 
Q 43.21875 41.609375 39.140625 45 
Q 35.0625 48.390625 27.6875 48.390625 
Q 23 48.390625 18.546875 47.265625 
Q 14.109375 46.140625 10.015625 43.890625 
L 10.015625 52.203125 
Q 14.9375 54.109375 19.578125 55.046875 
Q 24.21875 56 28.609375 56 
Q 40.484375 56 46.34375 49.84375 
Q 52.203125 43.703125 52.203125 31.203125 
z
" id="DejaVuSans-61"/>
      <path d="M 9.421875 75.984375 
L 18.40625 75.984375 
L 18.40625 0 
L 9.421875 0 
z
" id="DejaVuSans-6c"/>
      <path d="M 8.5 21.578125 
L 8.5 54.6875 
L 17.484375 54.6875 
L 17.484375 21.921875 
Q 17.484375 14.15625 20.5 10.265625 
Q 23.53125 6.390625 29.59375 6.390625 
Q 36.859375 6.390625 41.078125 11.03125 
Q 45.3125 15.671875 45.3125 23.6875 
L 45.3125 54.6875 
L 54.296875 54.6875 
L 54.296875 0 
L 45.3125 0 
L 45.3125 8.40625 
Q 42.046875 3.421875 37.71875 1 
Q 33.40625 -1.421875 27.6875 -1.421875 
Q 18.265625 -1.421875 13.375 4.4375 
Q 8.5 10.296875 8.5 21.578125 
z
M 31.109375 56 
z
" id="DejaVuSans-75"/>
      <path d="M 56.203125 29.59375 
L 56.203125 25.203125 
L 14.890625 25.203125 
Q 15.484375 15.921875 20.484375 11.0625 
Q 25.484375 6.203125 34.421875 6.203125 
Q 39.59375 6.203125 44.453125 7.46875 
Q 49.3125 8.734375 54.109375 11.28125 
L 54.109375 2.78125 
Q 49.265625 0.734375 44.1875 -0.34375 
Q 39.109375 -1.421875 33.890625 -1.421875 
Q 20.796875 -1.421875 13.15625 6.1875 
Q 5.515625 13.8125 5.515625 26.8125 
Q 5.515625 40.234375 12.765625 48.109375 
Q 20.015625 56 32.328125 56 
Q 43.359375 56 49.78125 48.890625 
Q 56.203125 41.796875 56.203125 29.59375 
z
M 47.21875 32.234375 
Q 47.125 39.59375 43.09375 43.984375 
Q 39.0625 48.390625 32.421875 48.390625 
Q 24.90625 48.390625 20.390625 44.140625 
Q 15.875 39.890625 15.1875 32.171875 
z
" id="DejaVuSans-65"/>
     </defs>
     <g transform="translate(111.267188 202.476562)scale(0.1 -0.1)">
      <use xlink:href="#DejaVuSans-76"/>
      <use x="59.179688" xlink:href="#DejaVuSans-61"/>
      <use x="120.458984" xlink:href="#DejaVuSans-6c"/>
      <use x="148.242188" xlink:href="#DejaVuSans-75"/>
      <use x="211.621094" xlink:href="#DejaVuSans-65"/>
     </g>
    </g>
   </g>
   <g id="matplotlib.axis_2">
    <g id="ytick_1">
     <g id="line2d_4">
      <defs>
       <path d="M 0 0 
L -3.5 0 
" id="m3f4c659e67" style="stroke:#000000;stroke-width:0.8;"/>
      </defs>
      <g>
       <use style="stroke:#000000;stroke-width:0.8;" x="40.05" xlink:href="#m3f4c659e67" y="174.2"/>
      </g>
     </g>
     <g id="text_5">
      <!-- 0.00 -->
      <defs>
       <path d="M 10.6875 12.40625 
L 21 12.40625 
L 21 0 
L 10.6875 0 
z
" id="DejaVuSans-2e"/>
      </defs>
      <g transform="translate(10.784375 177.999219)scale(0.1 -0.1)">
       <use xlink:href="#DejaVuSans-30"/>
       <use x="63.623047" xlink:href="#DejaVuSans-2e"/>
       <use x="95.410156" xlink:href="#DejaVuSans-30"/>
       <use x="159.033203" xlink:href="#DejaVuSans-30"/>
      </g>
     </g>
    </g>
    <g id="ytick_2">
     <g id="line2d_5">
      <g>
       <use style="stroke:#000000;stroke-width:0.8;" x="40.05" xlink:href="#m3f4c659e67" y="148.912734"/>
      </g>
     </g>
     <g id="text_6">
      <!-- 0.05 -->
      <g transform="translate(10.784375 152.711953)scale(0.1 -0.1)">
       <use xlink:href="#DejaVuSans-30"/>
       <use x="63.623047" xlink:href="#DejaVuSans-2e"/>
       <use x="95.410156" xlink:href="#DejaVuSans-30"/>
       <use x="159.033203" xlink:href="#DejaVuSans-35"/>
      </g>
     </g>
    </g>
    <g id="ytick_3">
     <g id="line2d_6">
      <g>
       <use style="stroke:#000000;stroke-width:0.8;" x="40.05" xlink:href="#m3f4c659e67" y="123.625468"/>
      </g>
     </g>
     <g id="text_7">
      <!-- 0.10 -->
      <g transform="translate(10.784375 127.424687)scale(0.1 -0.1)">
       <use xlink:href="#DejaVuSans-30"/>
       <use x="63.623047" xlink:href="#DejaVuSans-2e"/>
       <use x="95.410156" xlink:href="#DejaVuSans-31"/>
       <use x="159.033203" xlink:href="#DejaVuSans-30"/>
      </g>
     </g>
    </g>
    <g id="ytick_4">
     <g id="line2d_7">
      <g>
       <use style="stroke:#000000;stroke-width:0.8;" x="40.05" xlink:href="#m3f4c659e67" y="98.338202"/>
      </g>
     </g>
     <g id="text_8">
      <!-- 0.15 -->
      <g transform="translate(10.784375 102.137421)scale(0.1 -0.1)">
       <use xlink:href="#DejaVuSans-30"/>
       <use x="63.623047" xlink:href="#DejaVuSans-2e"/>
       <use x="95.410156" xlink:href="#DejaVuSans-31"/>
       <use x="159.033203" xlink:href="#DejaVuSans-35"/>
      </g>
     </g>
    </g>
    <g id="ytick_5">
     <g id="line2d_8">
      <g>
       <use style="stroke:#000000;stroke-width:0.8;" x="40.05" xlink:href="#m3f4c659e67" y="73.050936"/>
      </g>
     </g>
     <g id="text_9">
      <!-- 0.20 -->
      <defs>
       <path d="M 19.1875 8.296875 
L 53.609375 8.296875 
L 53.609375 0 
L 7.328125 0 
L 7.328125 8.296875 
Q 12.9375 14.109375 22.625 23.890625 
Q 32.328125 33.6875 34.8125 36.53125 
Q 39.546875 41.84375 41.421875 45.53125 
Q 43.3125 49.21875 43.3125 52.78125 
Q 43.3125 58.59375 39.234375 62.25 
Q 35.15625 65.921875 28.609375 65.921875 
Q 23.96875 65.921875 18.8125 64.3125 
Q 13.671875 62.703125 7.8125 59.421875 
L 7.8125 69.390625 
Q 13.765625 71.78125 18.9375 73 
Q 24.125 74.21875 28.421875 74.21875 
Q 39.75 74.21875 46.484375 68.546875 
Q 53.21875 62.890625 53.21875 53.421875 
Q 53.21875 48.921875 51.53125 44.890625 
Q 49.859375 40.875 45.40625 35.40625 
Q 44.1875 33.984375 37.640625 27.21875 
Q 31.109375 20.453125 19.1875 8.296875 
z
" id="DejaVuSans-32"/>
      </defs>
      <g transform="translate(10.784375 76.850155)scale(0.1 -0.1)">
       <use xlink:href="#DejaVuSans-30"/>
       <use x="63.623047" xlink:href="#DejaVuSans-2e"/>
       <use x="95.410156" xlink:href="#DejaVuSans-32"/>
       <use x="159.033203" xlink:href="#DejaVuSans-30"/>
      </g>
     </g>
    </g>
    <g id="ytick_6">
     <g id="line2d_9">
      <g>
       <use style="stroke:#000000;stroke-width:0.8;" x="40.05" xlink:href="#m3f4c659e67" y="47.76367"/>
      </g>
     </g>
     <g id="text_10">
      <!-- 0.25 -->
      <g transform="translate(10.784375 51.562889)scale(0.1 -0.1)">
       <use xlink:href="#DejaVuSans-30"/>
       <use x="63.623047" xlink:href="#DejaVuSans-2e"/>
       <use x="95.410156" xlink:href="#DejaVuSans-32"/>
       <use x="159.033203" xlink:href="#DejaVuSans-35"/>
      </g>
     </g>
    </g>
   </g>
   <g id="patch_27">
    <path d="M 40.05 174.2 
L 40.05 24.8 
" style="fill:none;stroke:#000000;stroke-linecap:square;stroke-linejoin:miter;stroke-width:0.8;"/>
   </g>
   <g id="patch_28">
    <path d="M 40.05 174.2 
L 209.8 174.2 
" style="fill:none;stroke:#000000;stroke-linecap:square;stroke-linejoin:miter;stroke-width:0.8;"/>
   </g>
   <g id="text_11">
    <!-- aircraft = A300 -->
    <defs>
     <path d="M 9.421875 54.6875 
L 18.40625 54.6875 
L 18.40625 0 
L 9.421875 0 
z
M 9.421875 75.984375 
L 18.40625 75.984375 
L 18.40625 64.59375 
L 9.421875 64.59375 
z
" id="DejaVuSans-69"/>
     <path d="M 41.109375 46.296875 
Q 39.59375 47.171875 37.8125 47.578125 
Q 36.03125 48 33.890625 48 
Q 26.265625 48 22.1875 43.046875 
Q 18.109375 38.09375 18.109375 28.8125 
L 18.109375 0 
L 9.078125 0 
L 9.078125 54.6875 
L 18.109375 54.6875 
L 18.109375 46.1875 
Q 20.953125 51.171875 25.484375 53.578125 
Q 30.03125 56 36.53125 56 
Q 37.453125 56 38.578125 55.875 
Q 39.703125 55.765625 41.0625 55.515625 
z
" id="DejaVuSans-72"/>
     <path d="M 48.78125 52.59375 
L 48.78125 44.1875 
Q 44.96875 46.296875 41.140625 47.34375 
Q 37.3125 48.390625 33.40625 48.390625 
Q 24.65625 48.390625 19.8125 42.84375 
Q 14.984375 37.3125 14.984375 27.296875 
Q 14.984375 17.28125 19.8125 11.734375 
Q 24.65625 6.203125 33.40625 6.203125 
Q 37.3125 6.203125 41.140625 7.25 
Q 44.96875 8.296875 48.78125 10.40625 
L 48.78125 2.09375 
Q 45.015625 0.34375 40.984375 -0.53125 
Q 36.96875 -1.421875 32.421875 -1.421875 
Q 20.0625 -1.421875 12.78125 6.34375 
Q 5.515625 14.109375 5.515625 27.296875 
Q 5.515625 40.671875 12.859375 48.328125 
Q 20.21875 56 33.015625 56 
Q 37.15625 56 41.109375 55.140625 
Q 45.0625 54.296875 48.78125 52.59375 
z
" id="DejaVuSans-63"/>
     <path d="M 37.109375 75.984375 
L 37.109375 68.5 
L 28.515625 68.5 
Q 23.6875 68.5 21.796875 66.546875 
Q 19.921875 64.59375 19.921875 59.515625 
L 19.921875 54.6875 
L 34.71875 54.6875 
L 34.71875 47.703125 
L 19.921875 47.703125 
L 19.921875 0 
L 10.890625 0 
L 10.890625 47.703125 
L 2.296875 47.703125 
L 2.296875 54.6875 
L 10.890625 54.6875 
L 10.890625 58.5 
Q 10.890625 67.625 15.140625 71.796875 
Q 19.390625 75.984375 28.609375 75.984375 
z
" id="DejaVuSans-66"/>
     <path d="M 18.3125 70.21875 
L 18.3125 54.6875 
L 36.8125 54.6875 
L 36.8125 47.703125 
L 18.3125 47.703125 
L 18.3125 18.015625 
Q 18.3125 11.328125 20.140625 9.421875 
Q 21.96875 7.515625 27.59375 7.515625 
L 36.8125 7.515625 
L 36.8125 0 
L 27.59375 0 
Q 17.1875 0 13.234375 3.875 
Q 9.28125 7.765625 9.28125 18.015625 
L 9.28125 47.703125 
L 2.6875 47.703125 
L 2.6875 54.6875 
L 9.28125 54.6875 
L 9.28125 70.21875 
z
" id="DejaVuSans-74"/>
     <path id="DejaVuSans-20"/>
     <path d="M 10.59375 45.40625 
L 73.1875 45.40625 
L 73.1875 37.203125 
L 10.59375 37.203125 
z
M 10.59375 25.484375 
L 73.1875 25.484375 
L 73.1875 17.1875 
L 10.59375 17.1875 
z
" id="DejaVuSans-3d"/>
     <path d="M 34.1875 63.1875 
L 20.796875 26.90625 
L 47.609375 26.90625 
z
M 28.609375 72.90625 
L 39.796875 72.90625 
L 67.578125 0 
L 57.328125 0 
L 50.6875 18.703125 
L 17.828125 18.703125 
L 11.1875 0 
L 0.78125 0 
z
" id="DejaVuSans-41"/>
     <path d="M 40.578125 39.3125 
Q 47.65625 37.796875 51.625 33 
Q 55.609375 28.21875 55.609375 21.1875 
Q 55.609375 10.40625 48.1875 4.484375 
Q 40.765625 -1.421875 27.09375 -1.421875 
Q 22.515625 -1.421875 17.65625 -0.515625 
Q 12.796875 0.390625 7.625 2.203125 
L 7.625 11.71875 
Q 11.71875 9.328125 16.59375 8.109375 
Q 21.484375 6.890625 26.8125 6.890625 
Q 36.078125 6.890625 40.9375 10.546875 
Q 45.796875 14.203125 45.796875 21.1875 
Q 45.796875 27.640625 41.28125 31.265625 
Q 36.765625 34.90625 28.71875 34.90625 
L 20.21875 34.90625 
L 20.21875 43.015625 
L 29.109375 43.015625 
Q 36.375 43.015625 40.234375 45.921875 
Q 44.09375 48.828125 44.09375 54.296875 
Q 44.09375 59.90625 40.109375 62.90625 
Q 36.140625 65.921875 28.71875 65.921875 
Q 24.65625 65.921875 20.015625 65.03125 
Q 15.375 64.15625 9.8125 62.3125 
L 9.8125 71.09375 
Q 15.4375 72.65625 20.34375 73.4375 
Q 25.25 74.21875 29.59375 74.21875 
Q 40.828125 74.21875 47.359375 69.109375 
Q 53.90625 64.015625 53.90625 55.328125 
Q 53.90625 49.265625 50.4375 45.09375 
Q 46.96875 40.921875 40.578125 39.3125 
z
" id="DejaVuSans-33"/>
    </defs>
    <g transform="translate(86.497656 18.8)scale(0.1 -0.1)">
     <use xlink:href="#DejaVuSans-61"/>
     <use x="61.279297" xlink:href="#DejaVuSans-69"/>
     <use x="89.0625" xlink:href="#DejaVuSans-72"/>
     <use x="130.144531" xlink:href="#DejaVuSans-63"/>
     <use x="185.125" xlink:href="#DejaVuSans-72"/>
     <use x="226.238281" xlink:href="#DejaVuSans-61"/>
     <use x="287.517578" xlink:href="#DejaVuSans-66"/>
     <use x="322.707031" xlink:href="#DejaVuSans-74"/>
     <use x="361.916016" xlink:href="#DejaVuSans-20"/>
     <use x="393.703125" xlink:href="#DejaVuSans-3d"/>
     <use x="477.492188" xlink:href="#DejaVuSans-20"/>
     <use x="509.279297" xlink:href="#DejaVuSans-41"/>
     <use x="577.6875" xlink:href="#DejaVuSans-33"/>
     <use x="641.310547" xlink:href="#DejaVuSans-30"/>
     <use x="704.933594" xlink:href="#DejaVuSans-30"/>
    </g>
   </g>
  </g>
  <g id="axes_2">
   <g id="patch_29">
    <path d="M 253.35 174.2 
L 423.1 174.2 
L 423.1 24.8 
L 253.35 24.8 
z
" style="fill:#ffffff;"/>
   </g>
   <g id="patch_30">
    <path clip-path="url(#p012507b248)" d="M 261.065909 174.2 
L 264.152273 174.2 
L 264.152273 174.096218 
L 261.065909 174.096218 
z
" style="fill:#1f77b4;opacity:0.4;"/>
   </g>
   <g id="patch_31">
    <path clip-path="url(#p012507b248)" d="M 264.152273 174.2 
L 267.238636 174.2 
L 267.238636 174.2 
L 264.152273 174.2 
z
" style="fill:#1f77b4;opacity:0.4;"/>
   </g>
   <g id="patch_32">
    <path clip-path="url(#p012507b248)" d="M 267.238636 174.2 
L 270.325 174.2 
L 270.325 174.096218 
L 267.238636 174.096218 
z
" style="fill:#1f77b4;opacity:0.4;"/>
   </g>
   <g id="patch_33">
    <path clip-path="url(#p012507b248)" d="M 270.325 174.2 
L 273.411364 174.2 
L 273.411364 173.78487 
L 270.325 173.78487 
z
" style="fill:#1f77b4;opacity:0.4;"/>
   </g>
   <g id="patch_34">
    <path clip-path="url(#p012507b248)" d="M 273.411364 174.2 
L 276.497727 174.2 
L 276.497727 173.888653 
L 273.411364 173.888653 
z
" style="fill:#1f77b4;opacity:0.4;"/>
   </g>
   <g id="patch_35">
    <path clip-path="url(#p012507b248)" d="M 276.497727 174.2 
L 279.584091 174.2 
L 279.584091 173.78487 
L 276.497727 173.78487 
z
" style="fill:#1f77b4;opacity:0.4;"/>
   </g>
   <g id="patch_36">
    <path clip-path="url(#p012507b248)" d="M 279.584091 174.2 
L 282.670455 174.2 
L 282.670455 173.681088 
L 279.584091 173.681088 
z
" style="fill:#1f77b4;opacity:0.4;"/>
   </g>
   <g id="patch_37">
    <path clip-path="url(#p012507b248)" d="M 282.670455 174.2 
L 285.756818 174.2 
L 285.756818 173.473523 
L 282.670455 173.473523 
z
" style="fill:#1f77b4;opacity:0.4;"/>
   </g>
   <g id="patch_38">
    <path clip-path="url(#p012507b248)" d="M 285.756818 174.2 
L 288.843182 174.2 
L 288.843182 173.78487 
L 285.756818 173.78487 
z
" style="fill:#1f77b4;opacity:0.4;"/>
   </g>
   <g id="patch_39">
    <path clip-path="url(#p012507b248)" d="M 288.843182 174.2 
L 291.929545 174.2 
L 291.929545 172.954611 
L 288.843182 172.954611 
z
" style="fill:#1f77b4;opacity:0.4;"/>
   </g>
   <g id="patch_40">
    <path clip-path="url(#p012507b248)" d="M 291.929545 174.2 
L 295.015909 174.2 
L 295.015909 172.435699 
L 291.929545 172.435699 
z
" style="fill:#1f77b4;opacity:0.4;"/>
   </g>
   <g id="patch_41">
    <path clip-path="url(#p012507b248)" d="M 295.015909 174.2 
L 298.102273 174.2 
L 298.102273 170.77518 
L 295.015909 170.77518 
z
" style="fill:#1f77b4;opacity:0.4;"/>
   </g>
   <g id="patch_42">
    <path clip-path="url(#p012507b248)" d="M 298.102273 174.2 
L 301.188636 174.2 
L 301.188636 168.180619 
L 298.102273 168.180619 
z
" style="fill:#1f77b4;opacity:0.4;"/>
   </g>
   <g id="patch_43">
    <path clip-path="url(#p012507b248)" d="M 301.188636 174.2 
L 304.275 174.2 
L 304.275 165.793623 
L 301.188636 165.793623 
z
" style="fill:#1f77b4;opacity:0.4;"/>
   </g>
   <g id="patch_44">
    <path clip-path="url(#p012507b248)" d="M 304.275 174.2 
L 307.361364 174.2 
L 307.361364 162.991497 
L 304.275 162.991497 
z
" style="fill:#1f77b4;opacity:0.4;"/>
   </g>
   <g id="patch_45">
    <path clip-path="url(#p012507b248)" d="M 307.361364 174.2 
L 310.447727 174.2 
L 310.447727 159.047765 
L 307.361364 159.047765 
z
" style="fill:#1f77b4;opacity:0.4;"/>
   </g>
   <g id="patch_46">
    <path clip-path="url(#p012507b248)" d="M 310.447727 174.2 
L 313.534091 174.2 
L 313.534091 154.58512 
L 310.447727 154.58512 
z
" style="fill:#1f77b4;opacity:0.4;"/>
   </g>
   <g id="patch_47">
    <path clip-path="url(#p012507b248)" d="M 313.534091 174.2 
L 316.620455 174.2 
L 316.620455 143.999312 
L 313.534091 143.999312 
z
" style="fill:#1f77b4;opacity:0.4;"/>
   </g>
   <g id="patch_48">
    <path clip-path="url(#p012507b248)" d="M 316.620455 174.2 
L 319.706818 174.2 
L 319.706818 136.423195 
L 316.620455 136.423195 
z
" style="fill:#1f77b4;opacity:0.4;"/>
   </g>
   <g id="patch_49">
    <path clip-path="url(#p012507b248)" d="M 319.706818 174.2 
L 322.793182 174.2 
L 322.793182 125.629822 
L 319.706818 125.629822 
z
" style="fill:#1f77b4;opacity:0.4;"/>
   </g>
   <g id="patch_50">
    <path clip-path="url(#p012507b248)" d="M 322.793182 174.2 
L 325.879545 174.2 
L 325.879545 112.449453 
L 322.793182 112.449453 
z
" style="fill:#1f77b4;opacity:0.4;"/>
   </g>
   <g id="patch_51">
    <path clip-path="url(#p012507b248)" d="M 325.879545 174.2 
L 328.965909 174.2 
L 328.965909 96.363176 
L 325.879545 96.363176 
z
" style="fill:#1f77b4;opacity:0.4;"/>
   </g>
   <g id="patch_52">
    <path clip-path="url(#p012507b248)" d="M 328.965909 174.2 
L 332.052273 174.2 
L 332.052273 78.20125 
L 328.965909 78.20125 
z
" style="fill:#1f77b4;opacity:0.4;"/>
   </g>
   <g id="patch_53">
    <path clip-path="url(#p012507b248)" d="M 332.052273 174.2 
L 335.138636 174.2 
L 335.138636 66.370053 
L 332.052273 66.370053 
z
" style="fill:#1f77b4;opacity:0.4;"/>
   </g>
   <g id="patch_54">
    <path clip-path="url(#p012507b248)" d="M 335.138636 174.2 
L 338.225 174.2 
L 338.225 52.463207 
L 335.138636 52.463207 
z
" style="fill:#1f77b4;opacity:0.4;"/>
   </g>
   <g id="patch_55">
    <path clip-path="url(#p012507b248)" d="M 338.225 174.2 
L 341.311364 174.2 
L 341.311364 35.754236 
L 338.225 35.754236 
z
" style="fill:#1f77b4;opacity:0.4;"/>
   </g>
   <g id="patch_56">
    <path clip-path="url(#p012507b248)" d="M 341.311364 174.2 
L 344.397727 174.2 
L 344.397727 31.914286 
L 341.311364 31.914286 
z
" style="fill:#1f77b4;opacity:0.4;"/>
   </g>
   <g id="patch_57">
    <path clip-path="url(#p012507b248)" d="M 344.397727 174.2 
L 347.484091 174.2 
L 347.484091 39.594186 
L 344.397727 39.594186 
z
" style="fill:#1f77b4;opacity:0.4;"/>
   </g>
   <g id="patch_58">
    <path clip-path="url(#p012507b248)" d="M 347.484091 174.2 
L 350.570455 174.2 
L 350.570455 46.651391 
L 347.484091 46.651391 
z
" style="fill:#1f77b4;opacity:0.4;"/>
   </g>
   <g id="patch_59">
    <path clip-path="url(#p012507b248)" d="M 350.570455 174.2 
L 353.656818 174.2 
L 353.656818 45.406002 
L 350.570455 45.406002 
z
" style="fill:#1f77b4;opacity:0.4;"/>
   </g>
   <g id="patch_60">
    <path clip-path="url(#p012507b248)" d="M 353.656818 174.2 
L 356.743182 174.2 
L 356.743182 59.0015 
L 353.656818 59.0015 
z
" style="fill:#1f77b4;opacity:0.4;"/>
   </g>
   <g id="patch_61">
    <path clip-path="url(#p012507b248)" d="M 356.743182 174.2 
L 359.829545 174.2 
L 359.829545 76.852079 
L 356.743182 76.852079 
z
" style="fill:#1f77b4;opacity:0.4;"/>
   </g>
   <g id="patch_62">
    <path clip-path="url(#p012507b248)" d="M 359.829545 174.2 
L 362.915909 174.2 
L 362.915909 93.97618 
L 359.829545 93.97618 
z
" style="fill:#1f77b4;opacity:0.4;"/>
   </g>
   <g id="patch_63">
    <path clip-path="url(#p012507b248)" d="M 362.915909 174.2 
L 366.002273 174.2 
L 366.002273 103.939294 
L 362.915909 103.939294 
z
" style="fill:#1f77b4;opacity:0.4;"/>
   </g>
   <g id="patch_64">
    <path clip-path="url(#p012507b248)" d="M 366.002273 174.2 
L 369.088636 174.2 
L 369.088636 119.714223 
L 366.002273 119.714223 
z
" style="fill:#1f77b4;opacity:0.4;"/>
   </g>
   <g id="patch_65">
    <path clip-path="url(#p012507b248)" d="M 369.088636 174.2 
L 372.175 174.2 
L 372.175 137.668584 
L 369.088636 137.668584 
z
" style="fill:#1f77b4;opacity:0.4;"/>
   </g>
   <g id="patch_66">
    <path clip-path="url(#p012507b248)" d="M 372.175 174.2 
L 375.261364 174.2 
L 375.261364 148.358174 
L 372.175 148.358174 
z
" style="fill:#1f77b4;opacity:0.4;"/>
   </g>
   <g id="patch_67">
    <path clip-path="url(#p012507b248)" d="M 375.261364 174.2 
L 378.347727 174.2 
L 378.347727 158.217505 
L 375.261364 158.217505 
z
" style="fill:#1f77b4;opacity:0.4;"/>
   </g>
   <g id="patch_68">
    <path clip-path="url(#p012507b248)" d="M 378.347727 174.2 
L 381.434091 174.2 
L 381.434091 161.746108 
L 378.347727 161.746108 
z
" style="fill:#1f77b4;opacity:0.4;"/>
   </g>
   <g id="patch_69">
    <path clip-path="url(#p012507b248)" d="M 381.434091 174.2 
L 384.520455 174.2 
L 384.520455 166.208753 
L 381.434091 166.208753 
z
" style="fill:#1f77b4;opacity:0.4;"/>
   </g>
   <g id="patch_70">
    <path clip-path="url(#p012507b248)" d="M 384.520455 174.2 
L 387.606818 174.2 
L 387.606818 169.218443 
L 384.520455 169.218443 
z
" style="fill:#1f77b4;opacity:0.4;"/>
   </g>
   <g id="patch_71">
    <path clip-path="url(#p012507b248)" d="M 387.606818 174.2 
L 390.693182 174.2 
L 390.693182 171.709222 
L 387.606818 171.709222 
z
" style="fill:#1f77b4;opacity:0.4;"/>
   </g>
   <g id="patch_72">
    <path clip-path="url(#p012507b248)" d="M 390.693182 174.2 
L 393.779545 174.2 
L 393.779545 172.435699 
L 390.693182 172.435699 
z
" style="fill:#1f77b4;opacity:0.4;"/>
   </g>
   <g id="patch_73">
    <path clip-path="url(#p012507b248)" d="M 393.779545 174.2 
L 396.865909 174.2 
L 396.865909 172.643264 
L 393.779545 172.643264 
z
" style="fill:#1f77b4;opacity:0.4;"/>
   </g>
   <g id="patch_74">
    <path clip-path="url(#p012507b248)" d="M 396.865909 174.2 
L 399.952273 174.2 
L 399.952273 173.473523 
L 396.865909 173.473523 
z
" style="fill:#1f77b4;opacity:0.4;"/>
   </g>
   <g id="patch_75">
    <path clip-path="url(#p012507b248)" d="M 399.952273 174.2 
L 403.038636 174.2 
L 403.038636 173.78487 
L 399.952273 173.78487 
z
" style="fill:#1f77b4;opacity:0.4;"/>
   </g>
   <g id="patch_76">
    <path clip-path="url(#p012507b248)" d="M 403.038636 174.2 
L 406.125 174.2 
L 406.125 174.2 
L 403.038636 174.2 
z
" style="fill:#1f77b4;opacity:0.4;"/>
   </g>
   <g id="patch_77">
    <path clip-path="url(#p012507b248)" d="M 406.125 174.2 
L 409.211364 174.2 
L 409.211364 173.78487 
L 406.125 173.78487 
z
" style="fill:#1f77b4;opacity:0.4;"/>
   </g>
   <g id="patch_78">
    <path clip-path="url(#p012507b248)" d="M 409.211364 174.2 
L 412.297727 174.2 
L 412.297727 174.2 
L 409.211364 174.2 
z
" style="fill:#1f77b4;opacity:0.4;"/>
   </g>
   <g id="patch_79">
    <path clip-path="url(#p012507b248)" d="M 412.297727 174.2 
L 415.384091 174.2 
L 415.384091 174.096218 
L 412.297727 174.096218 
z
" style="fill:#1f77b4;opacity:0.4;"/>
   </g>
   <g id="matplotlib.axis_3">
    <g id="xtick_4">
     <g id="line2d_10">
      <g>
       <use style="stroke:#000000;stroke-width:0.8;" x="269.882934" xlink:href="#md911714d02" y="174.2"/>
      </g>
     </g>
     <g id="text_12">
      <!-- 0 -->
      <g transform="translate(266.701684 188.798438)scale(0.1 -0.1)">
       <use xlink:href="#DejaVuSans-30"/>
      </g>
     </g>
    </g>
    <g id="xtick_5">
     <g id="line2d_11">
      <g>
       <use style="stroke:#000000;stroke-width:0.8;" x="313.395593" xlink:href="#md911714d02" y="174.2"/>
      </g>
     </g>
     <g id="text_13">
      <!-- 5 -->
      <g transform="translate(310.214343 188.798438)scale(0.1 -0.1)">
       <use xlink:href="#DejaVuSans-35"/>
      </g>
     </g>
    </g>
    <g id="xtick_6">
     <g id="line2d_12">
      <g>
       <use style="stroke:#000000;stroke-width:0.8;" x="356.908253" xlink:href="#md911714d02" y="174.2"/>
      </g>
     </g>
     <g id="text_14">
      <!-- 10 -->
      <g transform="translate(350.545753 188.798438)scale(0.1 -0.1)">
       <use xlink:href="#DejaVuSans-31"/>
       <use x="63.623047" xlink:href="#DejaVuSans-30"/>
      </g>
     </g>
    </g>
    <g id="xtick_7">
     <g id="line2d_13">
      <g>
       <use style="stroke:#000000;stroke-width:0.8;" x="400.420912" xlink:href="#md911714d02" y="174.2"/>
      </g>
     </g>
     <g id="text_15">
      <!-- 15 -->
      <g transform="translate(394.058412 188.798438)scale(0.1 -0.1)">
       <use xlink:href="#DejaVuSans-31"/>
       <use x="63.623047" xlink:href="#DejaVuSans-35"/>
      </g>
     </g>
    </g>
    <g id="text_16">
     <!-- value -->
     <g transform="translate(324.567188 202.476562)scale(0.1 -0.1)">
      <use xlink:href="#DejaVuSans-76"/>
      <use x="59.179688" xlink:href="#DejaVuSans-61"/>
      <use x="120.458984" xlink:href="#DejaVuSans-6c"/>
      <use x="148.242188" xlink:href="#DejaVuSans-75"/>
      <use x="211.621094" xlink:href="#DejaVuSans-65"/>
     </g>
    </g>
   </g>
   <g id="matplotlib.axis_4">
    <g id="ytick_7">
     <g id="line2d_14">
      <g>
       <use style="stroke:#000000;stroke-width:0.8;" x="253.35" xlink:href="#m3f4c659e67" y="174.2"/>
      </g>
     </g>
     <g id="text_17">
      <!-- 0.00 -->
      <g transform="translate(224.084375 177.999219)scale(0.1 -0.1)">
       <use xlink:href="#DejaVuSans-30"/>
       <use x="63.623047" xlink:href="#DejaVuSans-2e"/>
       <use x="95.410156" xlink:href="#DejaVuSans-30"/>
       <use x="159.033203" xlink:href="#DejaVuSans-30"/>
      </g>
     </g>
    </g>
    <g id="ytick_8">
     <g id="line2d_15">
      <g>
       <use style="stroke:#000000;stroke-width:0.8;" x="253.35" xlink:href="#m3f4c659e67" y="141.359341"/>
      </g>
     </g>
     <g id="text_18">
      <!-- 0.05 -->
      <g transform="translate(224.084375 145.158559)scale(0.1 -0.1)">
       <use xlink:href="#DejaVuSans-30"/>
       <use x="63.623047" xlink:href="#DejaVuSans-2e"/>
       <use x="95.410156" xlink:href="#DejaVuSans-30"/>
       <use x="159.033203" xlink:href="#DejaVuSans-35"/>
      </g>
     </g>
    </g>
    <g id="ytick_9">
     <g id="line2d_16">
      <g>
       <use style="stroke:#000000;stroke-width:0.8;" x="253.35" xlink:href="#m3f4c659e67" y="108.518681"/>
      </g>
     </g>
     <g id="text_19">
      <!-- 0.10 -->
      <g transform="translate(224.084375 112.3179)scale(0.1 -0.1)">
       <use xlink:href="#DejaVuSans-30"/>
       <use x="63.623047" xlink:href="#DejaVuSans-2e"/>
       <use x="95.410156" xlink:href="#DejaVuSans-31"/>
       <use x="159.033203" xlink:href="#DejaVuSans-30"/>
      </g>
     </g>
    </g>
    <g id="ytick_10">
     <g id="line2d_17">
      <g>
       <use style="stroke:#000000;stroke-width:0.8;" x="253.35" xlink:href="#m3f4c659e67" y="75.678022"/>
      </g>
     </g>
     <g id="text_20">
      <!-- 0.15 -->
      <g transform="translate(224.084375 79.47724)scale(0.1 -0.1)">
       <use xlink:href="#DejaVuSans-30"/>
       <use x="63.623047" xlink:href="#DejaVuSans-2e"/>
       <use x="95.410156" xlink:href="#DejaVuSans-31"/>
       <use x="159.033203" xlink:href="#DejaVuSans-35"/>
      </g>
     </g>
    </g>
    <g id="ytick_11">
     <g id="line2d_18">
      <g>
       <use style="stroke:#000000;stroke-width:0.8;" x="253.35" xlink:href="#m3f4c659e67" y="42.837362"/>
      </g>
     </g>
     <g id="text_21">
      <!-- 0.20 -->
      <g transform="translate(224.084375 46.636581)scale(0.1 -0.1)">
       <use xlink:href="#DejaVuSans-30"/>
       <use x="63.623047" xlink:href="#DejaVuSans-2e"/>
       <use x="95.410156" xlink:href="#DejaVuSans-32"/>
       <use x="159.033203" xlink:href="#DejaVuSans-30"/>
      </g>
     </g>
    </g>
   </g>
   <g id="patch_80">
    <path d="M 253.35 174.2 
L 253.35 24.8 
" style="fill:none;stroke:#000000;stroke-linecap:square;stroke-linejoin:miter;stroke-width:0.8;"/>
   </g>
   <g id="patch_81">
    <path d="M 253.35 174.2 
L 423.1 174.2 
" style="fill:none;stroke:#000000;stroke-linecap:square;stroke-linejoin:miter;stroke-width:0.8;"/>
   </g>
   <g id="text_22">
    <!-- aircraft = A319 -->
    <defs>
     <path d="M 10.984375 1.515625 
L 10.984375 10.5 
Q 14.703125 8.734375 18.5 7.8125 
Q 22.3125 6.890625 25.984375 6.890625 
Q 35.75 6.890625 40.890625 13.453125 
Q 46.046875 20.015625 46.78125 33.40625 
Q 43.953125 29.203125 39.59375 26.953125 
Q 35.25 24.703125 29.984375 24.703125 
Q 19.046875 24.703125 12.671875 31.3125 
Q 6.296875 37.9375 6.296875 49.421875 
Q 6.296875 60.640625 12.9375 67.421875 
Q 19.578125 74.21875 30.609375 74.21875 
Q 43.265625 74.21875 49.921875 64.515625 
Q 56.59375 54.828125 56.59375 36.375 
Q 56.59375 19.140625 48.40625 8.859375 
Q 40.234375 -1.421875 26.421875 -1.421875 
Q 22.703125 -1.421875 18.890625 -0.6875 
Q 15.09375 0.046875 10.984375 1.515625 
z
M 30.609375 32.421875 
Q 37.25 32.421875 41.125 36.953125 
Q 45.015625 41.5 45.015625 49.421875 
Q 45.015625 57.28125 41.125 61.84375 
Q 37.25 66.40625 30.609375 66.40625 
Q 23.96875 66.40625 20.09375 61.84375 
Q 16.21875 57.28125 16.21875 49.421875 
Q 16.21875 41.5 20.09375 36.953125 
Q 23.96875 32.421875 30.609375 32.421875 
z
" id="DejaVuSans-39"/>
    </defs>
    <g transform="translate(299.797656 18.8)scale(0.1 -0.1)">
     <use xlink:href="#DejaVuSans-61"/>
     <use x="61.279297" xlink:href="#DejaVuSans-69"/>
     <use x="89.0625" xlink:href="#DejaVuSans-72"/>
     <use x="130.144531" xlink:href="#DejaVuSans-63"/>
     <use x="185.125" xlink:href="#DejaVuSans-72"/>
     <use x="226.238281" xlink:href="#DejaVuSans-61"/>
     <use x="287.517578" xlink:href="#DejaVuSans-66"/>
     <use x="322.707031" xlink:href="#DejaVuSans-74"/>
     <use x="361.916016" xlink:href="#DejaVuSans-20"/>
     <use x="393.703125" xlink:href="#DejaVuSans-3d"/>
     <use x="477.492188" xlink:href="#DejaVuSans-20"/>
     <use x="509.279297" xlink:href="#DejaVuSans-41"/>
     <use x="577.6875" xlink:href="#DejaVuSans-33"/>
     <use x="641.310547" xlink:href="#DejaVuSans-31"/>
     <use x="704.933594" xlink:href="#DejaVuSans-39"/>
    </g>
   </g>
  </g>
  <g id="axes_3">
   <g id="patch_82">
    <path d="M 466.65 174.2 
L 636.4 174.2 
L 636.4 24.8 
L 466.65 24.8 
z
" style="fill:#ffffff;"/>
   </g>
   <g id="patch_83">
    <path clip-path="url(#p20348e1383)" d="M 474.365909 174.2 
L 479.042218 174.2 
L 479.042218 172.564532 
L 474.365909 172.564532 
z
" style="fill:#1f77b4;opacity:0.4;"/>
   </g>
   <g id="patch_84">
    <path clip-path="url(#p20348e1383)" d="M 479.042218 174.2 
L 483.718526 174.2 
L 483.718526 160.5711 
L 479.042218 160.5711 
z
" style="fill:#1f77b4;opacity:0.4;"/>
   </g>
   <g id="patch_85">
    <path clip-path="url(#p20348e1383)" d="M 483.718526 174.2 
L 488.394835 174.2 
L 488.394835 164.387192 
L 483.718526 164.387192 
z
" style="fill:#1f77b4;opacity:0.4;"/>
   </g>
   <g id="patch_86">
    <path clip-path="url(#p20348e1383)" d="M 488.394835 174.2 
L 493.071143 174.2 
L 493.071143 154.029228 
L 488.394835 154.029228 
z
" style="fill:#1f77b4;opacity:0.4;"/>
   </g>
   <g id="patch_87">
    <path clip-path="url(#p20348e1383)" d="M 493.071143 174.2 
L 497.747452 174.2 
L 497.747452 142.580952 
L 493.071143 142.580952 
z
" style="fill:#1f77b4;opacity:0.4;"/>
   </g>
   <g id="patch_88">
    <path clip-path="url(#p20348e1383)" d="M 497.747452 174.2 
L 502.42376 174.2 
L 502.42376 131.132677 
L 497.747452 131.132677 
z
" style="fill:#1f77b4;opacity:0.4;"/>
   </g>
   <g id="patch_89">
    <path clip-path="url(#p20348e1383)" d="M 502.42376 174.2 
L 507.100069 174.2 
L 507.100069 144.21642 
L 502.42376 144.21642 
z
" style="fill:#1f77b4;opacity:0.4;"/>
   </g>
   <g id="patch_90">
    <path clip-path="url(#p20348e1383)" d="M 507.100069 174.2 
L 511.776377 174.2 
L 511.776377 129.497209 
L 507.100069 129.497209 
z
" style="fill:#1f77b4;opacity:0.4;"/>
   </g>
   <g id="patch_91">
    <path clip-path="url(#p20348e1383)" d="M 511.776377 174.2 
L 516.452686 174.2 
L 516.452686 150.213136 
L 511.776377 150.213136 
z
" style="fill:#1f77b4;opacity:0.4;"/>
   </g>
   <g id="patch_92">
    <path clip-path="url(#p20348e1383)" d="M 516.452686 174.2 
L 521.128994 174.2 
L 521.128994 158.390476 
L 516.452686 158.390476 
z
" style="fill:#1f77b4;opacity:0.4;"/>
   </g>
   <g id="patch_93">
    <path clip-path="url(#p20348e1383)" d="M 521.128994 174.2 
L 525.805303 174.2 
L 525.805303 162.206568 
L 521.128994 162.206568 
z
" style="fill:#1f77b4;opacity:0.4;"/>
   </g>
   <g id="patch_94">
    <path clip-path="url(#p20348e1383)" d="M 525.805303 174.2 
L 530.481612 174.2 
L 530.481612 163.29688 
L 525.805303 163.29688 
z
" style="fill:#1f77b4;opacity:0.4;"/>
   </g>
   <g id="patch_95">
    <path clip-path="url(#p20348e1383)" d="M 530.481612 174.2 
L 535.15792 174.2 
L 535.15792 167.658128 
L 530.481612 167.658128 
z
" style="fill:#1f77b4;opacity:0.4;"/>
   </g>
   <g id="patch_96">
    <path clip-path="url(#p20348e1383)" d="M 535.15792 174.2 
L 539.834229 174.2 
L 539.834229 156.209852 
L 535.15792 156.209852 
z
" style="fill:#1f77b4;opacity:0.4;"/>
   </g>
   <g id="patch_97">
    <path clip-path="url(#p20348e1383)" d="M 539.834229 174.2 
L 544.510537 174.2 
L 544.510537 160.025944 
L 539.834229 160.025944 
z
" style="fill:#1f77b4;opacity:0.4;"/>
   </g>
   <g id="patch_98">
    <path clip-path="url(#p20348e1383)" d="M 544.510537 174.2 
L 549.186846 174.2 
L 549.186846 145.851888 
L 544.510537 145.851888 
z
" style="fill:#1f77b4;opacity:0.4;"/>
   </g>
   <g id="patch_99">
    <path clip-path="url(#p20348e1383)" d="M 549.186846 174.2 
L 553.863154 174.2 
L 553.863154 136.03908 
L 549.186846 136.03908 
z
" style="fill:#1f77b4;opacity:0.4;"/>
   </g>
   <g id="patch_100">
    <path clip-path="url(#p20348e1383)" d="M 553.863154 174.2 
L 558.539463 174.2 
L 558.539463 114.777997 
L 553.863154 114.777997 
z
" style="fill:#1f77b4;opacity:0.4;"/>
   </g>
   <g id="patch_101">
    <path clip-path="url(#p20348e1383)" d="M 558.539463 174.2 
L 563.215771 174.2 
L 563.215771 98.968473 
L 558.539463 98.968473 
z
" style="fill:#1f77b4;opacity:0.4;"/>
   </g>
   <g id="patch_102">
    <path clip-path="url(#p20348e1383)" d="M 563.215771 174.2 
L 567.89208 174.2 
L 567.89208 84.249261 
L 563.215771 84.249261 
z
" style="fill:#1f77b4;opacity:0.4;"/>
   </g>
   <g id="patch_103">
    <path clip-path="url(#p20348e1383)" d="M 567.89208 174.2 
L 572.568388 174.2 
L 572.568388 74.436453 
L 567.89208 74.436453 
z
" style="fill:#1f77b4;opacity:0.4;"/>
   </g>
   <g id="patch_104">
    <path clip-path="url(#p20348e1383)" d="M 572.568388 174.2 
L 577.244697 174.2 
L 577.244697 40.636782 
L 572.568388 40.636782 
z
" style="fill:#1f77b4;opacity:0.4;"/>
   </g>
   <g id="patch_105">
    <path clip-path="url(#p20348e1383)" d="M 577.244697 174.2 
L 581.921006 174.2 
L 581.921006 31.914286 
L 577.244697 31.914286 
z
" style="fill:#1f77b4;opacity:0.4;"/>
   </g>
   <g id="patch_106">
    <path clip-path="url(#p20348e1383)" d="M 581.921006 174.2 
L 586.597314 174.2 
L 586.597314 47.178654 
L 581.921006 47.178654 
z
" style="fill:#1f77b4;opacity:0.4;"/>
   </g>
   <g id="patch_107">
    <path clip-path="url(#p20348e1383)" d="M 586.597314 174.2 
L 591.273623 174.2 
L 591.273623 49.359278 
L 586.597314 49.359278 
z
" style="fill:#1f77b4;opacity:0.4;"/>
   </g>
   <g id="patch_108">
    <path clip-path="url(#p20348e1383)" d="M 591.273623 174.2 
L 595.949931 174.2 
L 595.949931 77.707389 
L 591.273623 77.707389 
z
" style="fill:#1f77b4;opacity:0.4;"/>
   </g>
   <g id="patch_109">
    <path clip-path="url(#p20348e1383)" d="M 595.949931 174.2 
L 600.62624 174.2 
L 600.62624 120.774713 
L 595.949931 120.774713 
z
" style="fill:#1f77b4;opacity:0.4;"/>
   </g>
   <g id="patch_110">
    <path clip-path="url(#p20348e1383)" d="M 600.62624 174.2 
L 605.302548 174.2 
L 605.302548 141.49064 
L 600.62624 141.49064 
z
" style="fill:#1f77b4;opacity:0.4;"/>
   </g>
   <g id="patch_111">
    <path clip-path="url(#p20348e1383)" d="M 605.302548 174.2 
L 609.978857 174.2 
L 609.978857 155.11954 
L 605.302548 155.11954 
z
" style="fill:#1f77b4;opacity:0.4;"/>
   </g>
   <g id="patch_112">
    <path clip-path="url(#p20348e1383)" d="M 609.978857 174.2 
L 614.655165 174.2 
L 614.655165 169.838752 
L 609.978857 169.838752 
z
" style="fill:#1f77b4;opacity:0.4;"/>
   </g>
   <g id="patch_113">
    <path clip-path="url(#p20348e1383)" d="M 614.655165 174.2 
L 619.331474 174.2 
L 619.331474 173.654844 
L 614.655165 173.654844 
z
" style="fill:#1f77b4;opacity:0.4;"/>
   </g>
   <g id="patch_114">
    <path clip-path="url(#p20348e1383)" d="M 619.331474 174.2 
L 624.007782 174.2 
L 624.007782 173.654844 
L 619.331474 173.654844 
z
" style="fill:#1f77b4;opacity:0.4;"/>
   </g>
   <g id="patch_115">
    <path clip-path="url(#p20348e1383)" d="M 624.007782 174.2 
L 628.684091 174.2 
L 628.684091 173.109688 
L 624.007782 173.109688 
z
" style="fill:#1f77b4;opacity:0.4;"/>
   </g>
   <g id="matplotlib.axis_5">
    <g id="xtick_8">
     <g id="line2d_19">
      <g>
       <use style="stroke:#000000;stroke-width:0.8;" x="484.708658" xlink:href="#md911714d02" y="174.2"/>
      </g>
     </g>
     <g id="text_23">
      <!-- 0 -->
      <g transform="translate(481.527408 188.798438)scale(0.1 -0.1)">
       <use xlink:href="#DejaVuSans-30"/>
      </g>
     </g>
    </g>
    <g id="xtick_9">
     <g id="line2d_20">
      <g>
       <use style="stroke:#000000;stroke-width:0.8;" x="543.547408" xlink:href="#md911714d02" y="174.2"/>
      </g>
     </g>
     <g id="text_24">
      <!-- 5 -->
      <g transform="translate(540.366158 188.798438)scale(0.1 -0.1)">
       <use xlink:href="#DejaVuSans-35"/>
      </g>
     </g>
    </g>
    <g id="xtick_10">
     <g id="line2d_21">
      <g>
       <use style="stroke:#000000;stroke-width:0.8;" x="602.386157" xlink:href="#md911714d02" y="174.2"/>
      </g>
     </g>
     <g id="text_25">
      <!-- 10 -->
      <g transform="translate(596.023657 188.798438)scale(0.1 -0.1)">
       <use xlink:href="#DejaVuSans-31"/>
       <use x="63.623047" xlink:href="#DejaVuSans-30"/>
      </g>
     </g>
    </g>
    <g id="text_26">
     <!-- value -->
     <g transform="translate(537.867188 202.476562)scale(0.1 -0.1)">
      <use xlink:href="#DejaVuSans-76"/>
      <use x="59.179688" xlink:href="#DejaVuSans-61"/>
      <use x="120.458984" xlink:href="#DejaVuSans-6c"/>
      <use x="148.242188" xlink:href="#DejaVuSans-75"/>
      <use x="211.621094" xlink:href="#DejaVuSans-65"/>
     </g>
    </g>
   </g>
   <g id="matplotlib.axis_6">
    <g id="ytick_12">
     <g id="line2d_22">
      <g>
       <use style="stroke:#000000;stroke-width:0.8;" x="466.65" xlink:href="#m3f4c659e67" y="174.2"/>
      </g>
     </g>
     <g id="text_27">
      <!-- 0.00 -->
      <g transform="translate(437.384375 177.999219)scale(0.1 -0.1)">
       <use xlink:href="#DejaVuSans-30"/>
       <use x="63.623047" xlink:href="#DejaVuSans-2e"/>
       <use x="95.410156" xlink:href="#DejaVuSans-30"/>
       <use x="159.033203" xlink:href="#DejaVuSans-30"/>
      </g>
     </g>
    </g>
    <g id="ytick_13">
     <g id="line2d_23">
      <g>
       <use style="stroke:#000000;stroke-width:0.8;" x="466.65" xlink:href="#m3f4c659e67" y="145.929009"/>
      </g>
     </g>
     <g id="text_28">
      <!-- 0.05 -->
      <g transform="translate(437.384375 149.728228)scale(0.1 -0.1)">
       <use xlink:href="#DejaVuSans-30"/>
       <use x="63.623047" xlink:href="#DejaVuSans-2e"/>
       <use x="95.410156" xlink:href="#DejaVuSans-30"/>
       <use x="159.033203" xlink:href="#DejaVuSans-35"/>
      </g>
     </g>
    </g>
    <g id="ytick_14">
     <g id="line2d_24">
      <g>
       <use style="stroke:#000000;stroke-width:0.8;" x="466.65" xlink:href="#m3f4c659e67" y="117.658018"/>
      </g>
     </g>
     <g id="text_29">
      <!-- 0.10 -->
      <g transform="translate(437.384375 121.457237)scale(0.1 -0.1)">
       <use xlink:href="#DejaVuSans-30"/>
       <use x="63.623047" xlink:href="#DejaVuSans-2e"/>
       <use x="95.410156" xlink:href="#DejaVuSans-31"/>
       <use x="159.033203" xlink:href="#DejaVuSans-30"/>
      </g>
     </g>
    </g>
    <g id="ytick_15">
     <g id="line2d_25">
      <g>
       <use style="stroke:#000000;stroke-width:0.8;" x="466.65" xlink:href="#m3f4c659e67" y="89.387027"/>
      </g>
     </g>
     <g id="text_30">
      <!-- 0.15 -->
      <g transform="translate(437.384375 93.186246)scale(0.1 -0.1)">
       <use xlink:href="#DejaVuSans-30"/>
       <use x="63.623047" xlink:href="#DejaVuSans-2e"/>
       <use x="95.410156" xlink:href="#DejaVuSans-31"/>
       <use x="159.033203" xlink:href="#DejaVuSans-35"/>
      </g>
     </g>
    </g>
    <g id="ytick_16">
     <g id="line2d_26">
      <g>
       <use style="stroke:#000000;stroke-width:0.8;" x="466.65" xlink:href="#m3f4c659e67" y="61.116037"/>
      </g>
     </g>
     <g id="text_31">
      <!-- 0.20 -->
      <g transform="translate(437.384375 64.915255)scale(0.1 -0.1)">
       <use xlink:href="#DejaVuSans-30"/>
       <use x="63.623047" xlink:href="#DejaVuSans-2e"/>
       <use x="95.410156" xlink:href="#DejaVuSans-32"/>
       <use x="159.033203" xlink:href="#DejaVuSans-30"/>
      </g>
     </g>
    </g>
    <g id="ytick_17">
     <g id="line2d_27">
      <g>
       <use style="stroke:#000000;stroke-width:0.8;" x="466.65" xlink:href="#m3f4c659e67" y="32.845046"/>
      </g>
     </g>
     <g id="text_32">
      <!-- 0.25 -->
      <g transform="translate(437.384375 36.644264)scale(0.1 -0.1)">
       <use xlink:href="#DejaVuSans-30"/>
       <use x="63.623047" xlink:href="#DejaVuSans-2e"/>
       <use x="95.410156" xlink:href="#DejaVuSans-32"/>
       <use x="159.033203" xlink:href="#DejaVuSans-35"/>
      </g>
     </g>
    </g>
   </g>
   <g id="patch_116">
    <path d="M 466.65 174.2 
L 466.65 24.8 
" style="fill:none;stroke:#000000;stroke-linecap:square;stroke-linejoin:miter;stroke-width:0.8;"/>
   </g>
   <g id="patch_117">
    <path d="M 466.65 174.2 
L 636.4 174.2 
" style="fill:none;stroke:#000000;stroke-linecap:square;stroke-linejoin:miter;stroke-width:0.8;"/>
   </g>
   <g id="text_33">
    <!-- aircraft = A330 -->
    <g transform="translate(513.097656 18.8)scale(0.1 -0.1)">
     <use xlink:href="#DejaVuSans-61"/>
     <use x="61.279297" xlink:href="#DejaVuSans-69"/>
     <use x="89.0625" xlink:href="#DejaVuSans-72"/>
     <use x="130.144531" xlink:href="#DejaVuSans-63"/>
     <use x="185.125" xlink:href="#DejaVuSans-72"/>
     <use x="226.238281" xlink:href="#DejaVuSans-61"/>
     <use x="287.517578" xlink:href="#DejaVuSans-66"/>
     <use x="322.707031" xlink:href="#DejaVuSans-74"/>
     <use x="361.916016" xlink:href="#DejaVuSans-20"/>
     <use x="393.703125" xlink:href="#DejaVuSans-3d"/>
     <use x="477.492188" xlink:href="#DejaVuSans-20"/>
     <use x="509.279297" xlink:href="#DejaVuSans-41"/>
     <use x="577.6875" xlink:href="#DejaVuSans-33"/>
     <use x="641.310547" xlink:href="#DejaVuSans-33"/>
     <use x="704.933594" xlink:href="#DejaVuSans-30"/>
    </g>
   </g>
  </g>
  <g id="axes_4">
   <g id="patch_118">
    <path d="M 679.95 174.2 
L 849.7 174.2 
L 849.7 24.8 
L 679.95 24.8 
z
" style="fill:#ffffff;"/>
   </g>
   <g id="patch_119">
    <path clip-path="url(#p9c7e753d64)" d="M 687.665909 174.2 
L 691.020652 174.2 
L 691.020652 173.619242 
L 687.665909 173.619242 
z
" style="fill:#1f77b4;opacity:0.4;"/>
   </g>
   <g id="patch_120">
    <path clip-path="url(#p9c7e753d64)" d="M 691.020652 174.2 
L 694.375395 174.2 
L 694.375395 174.2 
L 691.020652 174.2 
z
" style="fill:#1f77b4;opacity:0.4;"/>
   </g>
   <g id="patch_121">
    <path clip-path="url(#p9c7e753d64)" d="M 694.375395 174.2 
L 697.730138 174.2 
L 697.730138 174.2 
L 694.375395 174.2 
z
" style="fill:#1f77b4;opacity:0.4;"/>
   </g>
   <g id="patch_122">
    <path clip-path="url(#p9c7e753d64)" d="M 697.730138 174.2 
L 701.084881 174.2 
L 701.084881 174.2 
L 697.730138 174.2 
z
" style="fill:#1f77b4;opacity:0.4;"/>
   </g>
   <g id="patch_123">
    <path clip-path="url(#p9c7e753d64)" d="M 701.084881 174.2 
L 704.439625 174.2 
L 704.439625 174.2 
L 701.084881 174.2 
z
" style="fill:#1f77b4;opacity:0.4;"/>
   </g>
   <g id="patch_124">
    <path clip-path="url(#p9c7e753d64)" d="M 704.439625 174.2 
L 707.794368 174.2 
L 707.794368 173.619242 
L 704.439625 173.619242 
z
" style="fill:#1f77b4;opacity:0.4;"/>
   </g>
   <g id="patch_125">
    <path clip-path="url(#p9c7e753d64)" d="M 707.794368 174.2 
L 711.149111 174.2 
L 711.149111 171.29621 
L 707.794368 171.29621 
z
" style="fill:#1f77b4;opacity:0.4;"/>
   </g>
   <g id="patch_126">
    <path clip-path="url(#p9c7e753d64)" d="M 711.149111 174.2 
L 714.503854 174.2 
L 714.503854 171.876968 
L 711.149111 171.876968 
z
" style="fill:#1f77b4;opacity:0.4;"/>
   </g>
   <g id="patch_127">
    <path clip-path="url(#p9c7e753d64)" d="M 714.503854 174.2 
L 717.858597 174.2 
L 717.858597 168.973178 
L 714.503854 168.973178 
z
" style="fill:#1f77b4;opacity:0.4;"/>
   </g>
   <g id="patch_128">
    <path clip-path="url(#p9c7e753d64)" d="M 717.858597 174.2 
L 721.21334 174.2 
L 721.21334 162.58484 
L 717.858597 162.58484 
z
" style="fill:#1f77b4;opacity:0.4;"/>
   </g>
   <g id="patch_129">
    <path clip-path="url(#p9c7e753d64)" d="M 721.21334 174.2 
L 724.568083 174.2 
L 724.568083 167.230904 
L 721.21334 167.230904 
z
" style="fill:#1f77b4;opacity:0.4;"/>
   </g>
   <g id="patch_130">
    <path clip-path="url(#p9c7e753d64)" d="M 724.568083 174.2 
L 727.922826 174.2 
L 727.922826 158.519534 
L 724.568083 158.519534 
z
" style="fill:#1f77b4;opacity:0.4;"/>
   </g>
   <g id="patch_131">
    <path clip-path="url(#p9c7e753d64)" d="M 727.922826 174.2 
L 731.277569 174.2 
L 731.277569 154.454227 
L 727.922826 154.454227 
z
" style="fill:#1f77b4;opacity:0.4;"/>
   </g>
   <g id="patch_132">
    <path clip-path="url(#p9c7e753d64)" d="M 731.277569 174.2 
L 734.632312 174.2 
L 734.632312 144.581341 
L 731.277569 144.581341 
z
" style="fill:#1f77b4;opacity:0.4;"/>
   </g>
   <g id="patch_133">
    <path clip-path="url(#p9c7e753d64)" d="M 734.632312 174.2 
L 737.987055 174.2 
L 737.987055 152.711953 
L 734.632312 152.711953 
z
" style="fill:#1f77b4;opacity:0.4;"/>
   </g>
   <g id="patch_134">
    <path clip-path="url(#p9c7e753d64)" d="M 737.987055 174.2 
L 741.341798 174.2 
L 741.341798 142.839067 
L 737.987055 142.839067 
z
" style="fill:#1f77b4;opacity:0.4;"/>
   </g>
   <g id="patch_135">
    <path clip-path="url(#p9c7e753d64)" d="M 741.341798 174.2 
L 744.696542 174.2 
L 744.696542 152.131195 
L 741.341798 152.131195 
z
" style="fill:#1f77b4;opacity:0.4;"/>
   </g>
   <g id="patch_136">
    <path clip-path="url(#p9c7e753d64)" d="M 744.696542 174.2 
L 748.051285 174.2 
L 748.051285 149.227405 
L 744.696542 149.227405 
z
" style="fill:#1f77b4;opacity:0.4;"/>
   </g>
   <g id="patch_137">
    <path clip-path="url(#p9c7e753d64)" d="M 748.051285 174.2 
L 751.406028 174.2 
L 751.406028 163.746356 
L 748.051285 163.746356 
z
" style="fill:#1f77b4;opacity:0.4;"/>
   </g>
   <g id="patch_138">
    <path clip-path="url(#p9c7e753d64)" d="M 751.406028 174.2 
L 754.760771 174.2 
L 754.760771 153.292711 
L 751.406028 153.292711 
z
" style="fill:#1f77b4;opacity:0.4;"/>
   </g>
   <g id="patch_139">
    <path clip-path="url(#p9c7e753d64)" d="M 754.760771 174.2 
L 758.115514 174.2 
L 758.115514 164.327114 
L 754.760771 164.327114 
z
" style="fill:#1f77b4;opacity:0.4;"/>
   </g>
   <g id="patch_140">
    <path clip-path="url(#p9c7e753d64)" d="M 758.115514 174.2 
L 761.470257 174.2 
L 761.470257 164.327114 
L 758.115514 164.327114 
z
" style="fill:#1f77b4;opacity:0.4;"/>
   </g>
   <g id="patch_141">
    <path clip-path="url(#p9c7e753d64)" d="M 761.470257 174.2 
L 764.825 174.2 
L 764.825 166.650146 
L 761.470257 166.650146 
z
" style="fill:#1f77b4;opacity:0.4;"/>
   </g>
   <g id="patch_142">
    <path clip-path="url(#p9c7e753d64)" d="M 764.825 174.2 
L 768.179743 174.2 
L 768.179743 167.811662 
L 764.825 167.811662 
z
" style="fill:#1f77b4;opacity:0.4;"/>
   </g>
   <g id="patch_143">
    <path clip-path="url(#p9c7e753d64)" d="M 768.179743 174.2 
L 771.534486 174.2 
L 771.534486 169.553936 
L 768.179743 169.553936 
z
" style="fill:#1f77b4;opacity:0.4;"/>
   </g>
   <g id="patch_144">
    <path clip-path="url(#p9c7e753d64)" d="M 771.534486 174.2 
L 774.889229 174.2 
L 774.889229 168.39242 
L 771.534486 168.39242 
z
" style="fill:#1f77b4;opacity:0.4;"/>
   </g>
   <g id="patch_145">
    <path clip-path="url(#p9c7e753d64)" d="M 774.889229 174.2 
L 778.243972 174.2 
L 778.243972 166.069388 
L 774.889229 166.069388 
z
" style="fill:#1f77b4;opacity:0.4;"/>
   </g>
   <g id="patch_146">
    <path clip-path="url(#p9c7e753d64)" d="M 778.243972 174.2 
L 781.598715 174.2 
L 781.598715 166.069388 
L 778.243972 166.069388 
z
" style="fill:#1f77b4;opacity:0.4;"/>
   </g>
   <g id="patch_147">
    <path clip-path="url(#p9c7e753d64)" d="M 781.598715 174.2 
L 784.953458 174.2 
L 784.953458 160.261808 
L 781.598715 160.261808 
z
" style="fill:#1f77b4;opacity:0.4;"/>
   </g>
   <g id="patch_148">
    <path clip-path="url(#p9c7e753d64)" d="M 784.953458 174.2 
L 788.308202 174.2 
L 788.308202 133.546939 
L 784.953458 133.546939 
z
" style="fill:#1f77b4;opacity:0.4;"/>
   </g>
   <g id="patch_149">
    <path clip-path="url(#p9c7e753d64)" d="M 788.308202 174.2 
L 791.662945 174.2 
L 791.662945 125.416327 
L 788.308202 125.416327 
z
" style="fill:#1f77b4;opacity:0.4;"/>
   </g>
   <g id="patch_150">
    <path clip-path="url(#p9c7e753d64)" d="M 791.662945 174.2 
L 795.017688 174.2 
L 795.017688 109.73586 
L 791.662945 109.73586 
z
" style="fill:#1f77b4;opacity:0.4;"/>
   </g>
   <g id="patch_151">
    <path clip-path="url(#p9c7e753d64)" d="M 795.017688 174.2 
L 798.372431 174.2 
L 798.372431 63.275219 
L 795.017688 63.275219 
z
" style="fill:#1f77b4;opacity:0.4;"/>
   </g>
   <g id="patch_152">
    <path clip-path="url(#p9c7e753d64)" d="M 798.372431 174.2 
L 801.727174 174.2 
L 801.727174 31.914286 
L 798.372431 31.914286 
z
" style="fill:#1f77b4;opacity:0.4;"/>
   </g>
   <g id="patch_153">
    <path clip-path="url(#p9c7e753d64)" d="M 801.727174 174.2 
L 805.081917 174.2 
L 805.081917 55.725364 
L 801.727174 55.725364 
z
" style="fill:#1f77b4;opacity:0.4;"/>
   </g>
   <g id="patch_154">
    <path clip-path="url(#p9c7e753d64)" d="M 805.081917 174.2 
L 808.43666 174.2 
L 808.43666 47.013994 
L 805.081917 47.013994 
z
" style="fill:#1f77b4;opacity:0.4;"/>
   </g>
   <g id="patch_155">
    <path clip-path="url(#p9c7e753d64)" d="M 808.43666 174.2 
L 811.791403 174.2 
L 811.791403 70.825073 
L 808.43666 70.825073 
z
" style="fill:#1f77b4;opacity:0.4;"/>
   </g>
   <g id="patch_156">
    <path clip-path="url(#p9c7e753d64)" d="M 811.791403 174.2 
L 815.146146 174.2 
L 815.146146 86.505539 
L 811.791403 86.505539 
z
" style="fill:#1f77b4;opacity:0.4;"/>
   </g>
   <g id="patch_157">
    <path clip-path="url(#p9c7e753d64)" d="M 815.146146 174.2 
L 818.500889 174.2 
L 818.500889 106.251312 
L 815.146146 106.251312 
z
" style="fill:#1f77b4;opacity:0.4;"/>
   </g>
   <g id="patch_158">
    <path clip-path="url(#p9c7e753d64)" d="M 818.500889 174.2 
L 821.855632 174.2 
L 821.855632 124.25481 
L 818.500889 124.25481 
z
" style="fill:#1f77b4;opacity:0.4;"/>
   </g>
   <g id="patch_159">
    <path clip-path="url(#p9c7e753d64)" d="M 821.855632 174.2 
L 825.210375 174.2 
L 825.210375 145.742857 
L 821.855632 145.742857 
z
" style="fill:#1f77b4;opacity:0.4;"/>
   </g>
   <g id="patch_160">
    <path clip-path="url(#p9c7e753d64)" d="M 825.210375 174.2 
L 828.565119 174.2 
L 828.565119 157.938776 
L 825.210375 157.938776 
z
" style="fill:#1f77b4;opacity:0.4;"/>
   </g>
   <g id="patch_161">
    <path clip-path="url(#p9c7e753d64)" d="M 828.565119 174.2 
L 831.919862 174.2 
L 831.919862 168.973178 
L 828.565119 168.973178 
z
" style="fill:#1f77b4;opacity:0.4;"/>
   </g>
   <g id="patch_162">
    <path clip-path="url(#p9c7e753d64)" d="M 831.919862 174.2 
L 835.274605 174.2 
L 835.274605 170.715452 
L 831.919862 170.715452 
z
" style="fill:#1f77b4;opacity:0.4;"/>
   </g>
   <g id="patch_163">
    <path clip-path="url(#p9c7e753d64)" d="M 835.274605 174.2 
L 838.629348 174.2 
L 838.629348 171.876968 
L 835.274605 171.876968 
z
" style="fill:#1f77b4;opacity:0.4;"/>
   </g>
   <g id="patch_164">
    <path clip-path="url(#p9c7e753d64)" d="M 838.629348 174.2 
L 841.984091 174.2 
L 841.984091 171.876968 
L 838.629348 171.876968 
z
" style="fill:#1f77b4;opacity:0.4;"/>
   </g>
   <g id="matplotlib.axis_7">
    <g id="xtick_11">
     <g id="line2d_28">
      <g>
       <use style="stroke:#000000;stroke-width:0.8;" x="697.238529" xlink:href="#md911714d02" y="174.2"/>
      </g>
     </g>
     <g id="text_34">
      <!-- 0 -->
      <g transform="translate(694.057279 188.798438)scale(0.1 -0.1)">
       <use xlink:href="#DejaVuSans-30"/>
      </g>
     </g>
    </g>
    <g id="xtick_12">
     <g id="line2d_29">
      <g>
       <use style="stroke:#000000;stroke-width:0.8;" x="758.888862" xlink:href="#md911714d02" y="174.2"/>
      </g>
     </g>
     <g id="text_35">
      <!-- 5 -->
      <g transform="translate(755.707612 188.798438)scale(0.1 -0.1)">
       <use xlink:href="#DejaVuSans-35"/>
      </g>
     </g>
    </g>
    <g id="xtick_13">
     <g id="line2d_30">
      <g>
       <use style="stroke:#000000;stroke-width:0.8;" x="820.539195" xlink:href="#md911714d02" y="174.2"/>
      </g>
     </g>
     <g id="text_36">
      <!-- 10 -->
      <g transform="translate(814.176695 188.798438)scale(0.1 -0.1)">
       <use xlink:href="#DejaVuSans-31"/>
       <use x="63.623047" xlink:href="#DejaVuSans-30"/>
      </g>
     </g>
    </g>
    <g id="text_37">
     <!-- value -->
     <g transform="translate(751.167188 202.476562)scale(0.1 -0.1)">
      <use xlink:href="#DejaVuSans-76"/>
      <use x="59.179688" xlink:href="#DejaVuSans-61"/>
      <use x="120.458984" xlink:href="#DejaVuSans-6c"/>
      <use x="148.242188" xlink:href="#DejaVuSans-75"/>
      <use x="211.621094" xlink:href="#DejaVuSans-65"/>
     </g>
    </g>
   </g>
   <g id="matplotlib.axis_8">
    <g id="ytick_18">
     <g id="line2d_31">
      <g>
       <use style="stroke:#000000;stroke-width:0.8;" x="679.95" xlink:href="#m3f4c659e67" y="174.2"/>
      </g>
     </g>
     <g id="text_38">
      <!-- 0.0 -->
      <g transform="translate(657.046875 177.999219)scale(0.1 -0.1)">
       <use xlink:href="#DejaVuSans-30"/>
       <use x="63.623047" xlink:href="#DejaVuSans-2e"/>
       <use x="95.410156" xlink:href="#DejaVuSans-30"/>
      </g>
     </g>
    </g>
    <g id="ytick_19">
     <g id="line2d_32">
      <g>
       <use style="stroke:#000000;stroke-width:0.8;" x="679.95" xlink:href="#m3f4c659e67" y="138.268155"/>
      </g>
     </g>
     <g id="text_39">
      <!-- 0.1 -->
      <g transform="translate(657.046875 142.067374)scale(0.1 -0.1)">
       <use xlink:href="#DejaVuSans-30"/>
       <use x="63.623047" xlink:href="#DejaVuSans-2e"/>
       <use x="95.410156" xlink:href="#DejaVuSans-31"/>
      </g>
     </g>
    </g>
    <g id="ytick_20">
     <g id="line2d_33">
      <g>
       <use style="stroke:#000000;stroke-width:0.8;" x="679.95" xlink:href="#m3f4c659e67" y="102.33631"/>
      </g>
     </g>
     <g id="text_40">
      <!-- 0.2 -->
      <g transform="translate(657.046875 106.135529)scale(0.1 -0.1)">
       <use xlink:href="#DejaVuSans-30"/>
       <use x="63.623047" xlink:href="#DejaVuSans-2e"/>
       <use x="95.410156" xlink:href="#DejaVuSans-32"/>
      </g>
     </g>
    </g>
    <g id="ytick_21">
     <g id="line2d_34">
      <g>
       <use style="stroke:#000000;stroke-width:0.8;" x="679.95" xlink:href="#m3f4c659e67" y="66.404465"/>
      </g>
     </g>
     <g id="text_41">
      <!-- 0.3 -->
      <g transform="translate(657.046875 70.203684)scale(0.1 -0.1)">
       <use xlink:href="#DejaVuSans-30"/>
       <use x="63.623047" xlink:href="#DejaVuSans-2e"/>
       <use x="95.410156" xlink:href="#DejaVuSans-33"/>
      </g>
     </g>
    </g>
    <g id="ytick_22">
     <g id="line2d_35">
      <g>
       <use style="stroke:#000000;stroke-width:0.8;" x="679.95" xlink:href="#m3f4c659e67" y="30.47262"/>
      </g>
     </g>
     <g id="text_42">
      <!-- 0.4 -->
      <defs>
       <path d="M 37.796875 64.3125 
L 12.890625 25.390625 
L 37.796875 25.390625 
z
M 35.203125 72.90625 
L 47.609375 72.90625 
L 47.609375 25.390625 
L 58.015625 25.390625 
L 58.015625 17.1875 
L 47.609375 17.1875 
L 47.609375 0 
L 37.796875 0 
L 37.796875 17.1875 
L 4.890625 17.1875 
L 4.890625 26.703125 
z
" id="DejaVuSans-34"/>
      </defs>
      <g transform="translate(657.046875 34.271839)scale(0.1 -0.1)">
       <use xlink:href="#DejaVuSans-30"/>
       <use x="63.623047" xlink:href="#DejaVuSans-2e"/>
       <use x="95.410156" xlink:href="#DejaVuSans-34"/>
      </g>
     </g>
    </g>
   </g>
   <g id="patch_165">
    <path d="M 679.95 174.2 
L 679.95 24.8 
" style="fill:none;stroke:#000000;stroke-linecap:square;stroke-linejoin:miter;stroke-width:0.8;"/>
   </g>
   <g id="patch_166">
    <path d="M 679.95 174.2 
L 849.7 174.2 
" style="fill:none;stroke:#000000;stroke-linecap:square;stroke-linejoin:miter;stroke-width:0.8;"/>
   </g>
   <g id="text_43">
    <!-- aircraft = A340 -->
    <g transform="translate(726.397656 18.8)scale(0.1 -0.1)">
     <use xlink:href="#DejaVuSans-61"/>
     <use x="61.279297" xlink:href="#DejaVuSans-69"/>
     <use x="89.0625" xlink:href="#DejaVuSans-72"/>
     <use x="130.144531" xlink:href="#DejaVuSans-63"/>
     <use x="185.125" xlink:href="#DejaVuSans-72"/>
     <use x="226.238281" xlink:href="#DejaVuSans-61"/>
     <use x="287.517578" xlink:href="#DejaVuSans-66"/>
     <use x="322.707031" xlink:href="#DejaVuSans-74"/>
     <use x="361.916016" xlink:href="#DejaVuSans-20"/>
     <use x="393.703125" xlink:href="#DejaVuSans-3d"/>
     <use x="477.492188" xlink:href="#DejaVuSans-20"/>
     <use x="509.279297" xlink:href="#DejaVuSans-41"/>
     <use x="577.6875" xlink:href="#DejaVuSans-33"/>
     <use x="641.310547" xlink:href="#DejaVuSans-34"/>
     <use x="704.933594" xlink:href="#DejaVuSans-30"/>
    </g>
   </g>
  </g>
 </g>
 <defs>
  <clipPath id="p34d2a14b95">
   <rect height="149.4" width="169.75" x="40.05" y="24.8"/>
  </clipPath>
  <clipPath id="p012507b248">
   <rect height="149.4" width="169.75" x="253.35" y="24.8"/>
  </clipPath>
  <clipPath id="p20348e1383">
   <rect height="149.4" width="169.75" x="466.65" y="24.8"/>
  </clipPath>
  <clipPath id="p9c7e753d64">
   <rect height="149.4" width="169.75" x="679.95" y="24.8"/>
  </clipPath>
 </defs>
</svg>
