<?xml version="1.0" encoding="utf-8" standalone="no"?>
<!DOCTYPE svg PUBLIC "-//W3C//DTD SVG 1.1//EN"
  "http://www.w3.org/Graphics/SVG/1.1/DTD/svg11.dtd">
<!-- Created with matplotlib (http://matplotlib.org/) -->
<svg height="216pt" version="1.1" viewBox="0 0 864 216" width="864pt" xmlns="http://www.w3.org/2000/svg" xmlns:xlink="http://www.w3.org/1999/xlink">
 <defs>
  <style type="text/css">
*{stroke-linecap:butt;stroke-linejoin:round;}
  </style>
 </defs>
 <g id="figure_1">
  <g id="patch_1">
   <path d="M 0 216 
L 864 216 
L 864 0 
L 0 0 
z
" style="fill:#ffffff;"/>
  </g>
  <g id="axes_1">
   <g id="patch_2">
    <path d="M 42.925 174.2 
L 849.7 174.2 
L 849.7 24.8 
L 42.925 24.8 
z
" style="fill:#ffffff;"/>
   </g>
   <g id="patch_3">
    <path clip-path="url(#p59bf37f597)" d="M 508.996649 174.2 
L 515.077285 174.2 
L 515.077285 169.991888 
L 508.996649 169.991888 
z
" style="fill:#1f77b4;opacity:0.4;"/>
   </g>
   <g id="patch_4">
    <path clip-path="url(#p59bf37f597)" d="M 515.077285 174.2 
L 521.15792 174.2 
L 521.15792 169.425081 
L 515.077285 169.425081 
z
" style="fill:#1f77b4;opacity:0.4;"/>
   </g>
   <g id="patch_5">
    <path clip-path="url(#p59bf37f597)" d="M 521.15792 174.2 
L 527.238555 174.2 
L 527.238555 167.604429 
L 521.15792 167.604429 
z
" style="fill:#1f77b4;opacity:0.4;"/>
   </g>
   <g id="patch_6">
    <path clip-path="url(#p59bf37f597)" d="M 527.238555 174.2 
L 533.31919 174.2 
L 533.31919 166.797158 
L 527.238555 166.797158 
z
" style="fill:#1f77b4;opacity:0.4;"/>
   </g>
   <g id="patch_7">
    <path clip-path="url(#p59bf37f597)" d="M 533.31919 174.2 
L 539.399825 174.2 
L 539.399825 163.241733 
L 533.31919 163.241733 
z
" style="fill:#1f77b4;opacity:0.4;"/>
   </g>
   <g id="patch_8">
    <path clip-path="url(#p59bf37f597)" d="M 539.399825 174.2 
L 545.480461 174.2 
L 545.480461 161.369552 
L 539.399825 161.369552 
z
" style="fill:#1f77b4;opacity:0.4;"/>
   </g>
   <g id="patch_9">
    <path clip-path="url(#p59bf37f597)" d="M 545.480461 174.2 
L 551.561096 174.2 
L 551.561096 154.911389 
L 545.480461 154.911389 
z
" style="fill:#1f77b4;opacity:0.4;"/>
   </g>
   <g id="patch_10">
    <path clip-path="url(#p59bf37f597)" d="M 551.561096 174.2 
L 557.641731 174.2 
L 557.641731 148.590633 
L 551.561096 148.590633 
z
" style="fill:#1f77b4;opacity:0.4;"/>
   </g>
   <g id="patch_11">
    <path clip-path="url(#p59bf37f597)" d="M 557.641731 174.2 
L 563.722366 174.2 
L 563.722366 138.2507 
L 557.641731 138.2507 
z
" style="fill:#1f77b4;opacity:0.4;"/>
   </g>
   <g id="patch_12">
    <path clip-path="url(#p59bf37f597)" d="M 563.722366 174.2 
L 569.803001 174.2 
L 569.803001 125.145437 
L 563.722366 125.145437 
z
" style="fill:#1f77b4;opacity:0.4;"/>
   </g>
   <g id="patch_13">
    <path clip-path="url(#p59bf37f597)" d="M 569.803001 174.2 
L 575.883636 174.2 
L 575.883636 104.293813 
L 569.803001 104.293813 
z
" style="fill:#1f77b4;opacity:0.4;"/>
   </g>
   <g id="patch_14">
    <path clip-path="url(#p59bf37f597)" d="M 575.883636 174.2 
L 581.964272 174.2 
L 581.964272 78.100462 
L 575.883636 78.100462 
z
" style="fill:#1f77b4;opacity:0.4;"/>
   </g>
   <g id="patch_15">
    <path clip-path="url(#p59bf37f597)" d="M 581.964272 174.2 
L 588.044907 174.2 
L 588.044907 61.714589 
L 581.964272 61.714589 
z
" style="fill:#1f77b4;opacity:0.4;"/>
   </g>
   <g id="patch_16">
    <path clip-path="url(#p59bf37f597)" d="M 588.044907 174.2 
L 594.125542 174.2 
L 594.125542 47.716176 
L 588.044907 47.716176 
z
" style="fill:#1f77b4;opacity:0.4;"/>
   </g>
   <g id="patch_17">
    <path clip-path="url(#p59bf37f597)" d="M 594.125542 174.2 
L 600.206177 174.2 
L 600.206177 34.198689 
L 594.125542 34.198689 
z
" style="fill:#1f77b4;opacity:0.4;"/>
   </g>
   <g id="patch_18">
    <path clip-path="url(#p59bf37f597)" d="M 600.206177 174.2 
L 606.286812 174.2 
L 606.286812 31.914286 
L 600.206177 31.914286 
z
" style="fill:#1f77b4;opacity:0.4;"/>
   </g>
   <g id="patch_19">
    <path clip-path="url(#p59bf37f597)" d="M 606.286812 174.2 
L 612.367448 174.2 
L 612.367448 44.658854 
L 606.286812 44.658854 
z
" style="fill:#1f77b4;opacity:0.4;"/>
   </g>
   <g id="patch_20">
    <path clip-path="url(#p59bf37f597)" d="M 612.367448 174.2 
L 618.448083 174.2 
L 618.448083 40.811437 
L 612.367448 40.811437 
z
" style="fill:#1f77b4;opacity:0.4;"/>
   </g>
   <g id="patch_21">
    <path clip-path="url(#p59bf37f597)" d="M 618.448083 174.2 
L 624.528718 174.2 
L 624.528718 52.388039 
L 618.448083 52.388039 
z
" style="fill:#1f77b4;opacity:0.4;"/>
   </g>
   <g id="patch_22">
    <path clip-path="url(#p59bf37f597)" d="M 624.528718 174.2 
L 630.609353 174.2 
L 630.609353 57.764117 
L 624.528718 57.764117 
z
" style="fill:#1f77b4;opacity:0.4;"/>
   </g>
   <g id="patch_23">
    <path clip-path="url(#p59bf37f597)" d="M 630.609353 174.2 
L 636.689988 174.2 
L 636.689988 67.210899 
L 630.609353 67.210899 
z
" style="fill:#1f77b4;opacity:0.4;"/>
   </g>
   <g id="patch_24">
    <path clip-path="url(#p59bf37f597)" d="M 636.689988 174.2 
L 642.770624 174.2 
L 642.770624 78.564213 
L 636.689988 78.564213 
z
" style="fill:#1f77b4;opacity:0.4;"/>
   </g>
   <g id="patch_25">
    <path clip-path="url(#p59bf37f597)" d="M 642.770624 174.2 
L 648.851259 174.2 
L 648.851259 90.707622 
L 642.770624 90.707622 
z
" style="fill:#1f77b4;opacity:0.4;"/>
   </g>
   <g id="patch_26">
    <path clip-path="url(#p59bf37f597)" d="M 648.851259 174.2 
L 654.931894 174.2 
L 654.931894 103.143023 
L 648.851259 103.143023 
z
" style="fill:#1f77b4;opacity:0.4;"/>
   </g>
   <g id="patch_27">
    <path clip-path="url(#p59bf37f597)" d="M 654.931894 174.2 
L 661.012529 174.2 
L 661.012529 114.685273 
L 654.931894 114.685273 
z
" style="fill:#1f77b4;opacity:0.4;"/>
   </g>
   <g id="patch_28">
    <path clip-path="url(#p59bf37f597)" d="M 661.012529 174.2 
L 667.093164 174.2 
L 667.093164 130.349755 
L 661.012529 130.349755 
z
" style="fill:#1f77b4;opacity:0.4;"/>
   </g>
   <g id="patch_29">
    <path clip-path="url(#p59bf37f597)" d="M 667.093164 174.2 
L 673.1738 174.2 
L 673.1738 136.653335 
L 667.093164 136.653335 
z
" style="fill:#1f77b4;opacity:0.4;"/>
   </g>
   <g id="patch_30">
    <path clip-path="url(#p59bf37f597)" d="M 673.1738 174.2 
L 679.254435 174.2 
L 679.254435 143.901593 
L 673.1738 143.901593 
z
" style="fill:#1f77b4;opacity:0.4;"/>
   </g>
   <g id="patch_31">
    <path clip-path="url(#p59bf37f597)" d="M 679.254435 174.2 
L 685.33507 174.2 
L 685.33507 151.751011 
L 679.254435 151.751011 
z
" style="fill:#1f77b4;opacity:0.4;"/>
   </g>
   <g id="patch_32">
    <path clip-path="url(#p59bf37f597)" d="M 685.33507 174.2 
L 691.415705 174.2 
L 691.415705 159.703483 
L 685.33507 159.703483 
z
" style="fill:#1f77b4;opacity:0.4;"/>
   </g>
   <g id="patch_33">
    <path clip-path="url(#p59bf37f597)" d="M 691.415705 174.2 
L 697.49634 174.2 
L 697.49634 165.457433 
L 691.415705 165.457433 
z
" style="fill:#1f77b4;opacity:0.4;"/>
   </g>
   <g id="patch_34">
    <path clip-path="url(#p59bf37f597)" d="M 697.49634 174.2 
L 703.576976 174.2 
L 703.576976 168.892626 
L 697.49634 168.892626 
z
" style="fill:#1f77b4;opacity:0.4;"/>
   </g>
   <g id="patch_35">
    <path clip-path="url(#p59bf37f597)" d="M 703.576976 174.2 
L 709.657611 174.2 
L 709.657611 170.283879 
L 703.576976 170.283879 
z
" style="fill:#1f77b4;opacity:0.4;"/>
   </g>
   <g id="patch_36">
    <path clip-path="url(#p59bf37f597)" d="M 709.657611 174.2 
L 715.738246 174.2 
L 715.738246 172.173236 
L 709.657611 172.173236 
z
" style="fill:#1f77b4;opacity:0.4;"/>
   </g>
   <g id="patch_37">
    <path clip-path="url(#p59bf37f597)" d="M 715.738246 174.2 
L 721.818881 174.2 
L 721.818881 172.877451 
L 715.738246 172.877451 
z
" style="fill:#1f77b4;opacity:0.4;"/>
   </g>
   <g id="patch_38">
    <path clip-path="url(#p59bf37f597)" d="M 721.818881 174.2 
L 727.899516 174.2 
L 727.899516 173.598841 
L 721.818881 173.598841 
z
" style="fill:#1f77b4;opacity:0.4;"/>
   </g>
   <g id="patch_39">
    <path clip-path="url(#p59bf37f597)" d="M 727.899516 174.2 
L 733.980152 174.2 
L 733.980152 173.598841 
L 727.899516 173.598841 
z
" style="fill:#1f77b4;opacity:0.4;"/>
   </g>
   <g id="patch_40">
    <path clip-path="url(#p59bf37f597)" d="M 733.980152 174.2 
L 740.060787 174.2 
L 740.060787 174.02824 
L 733.980152 174.02824 
z
" style="fill:#1f77b4;opacity:0.4;"/>
   </g>
   <g id="patch_41">
    <path clip-path="url(#p59bf37f597)" d="M 740.060787 174.2 
L 746.141422 174.2 
L 746.141422 174.079768 
L 740.060787 174.079768 
z
" style="fill:#1f77b4;opacity:0.4;"/>
   </g>
   <g id="patch_42">
    <path clip-path="url(#p59bf37f597)" d="M 746.141422 174.2 
L 752.222057 174.2 
L 752.222057 174.148472 
L 746.141422 174.148472 
z
" style="fill:#1f77b4;opacity:0.4;"/>
   </g>
   <g id="patch_43">
    <path clip-path="url(#p59bf37f597)" d="M 752.222057 174.2 
L 758.302692 174.2 
L 758.302692 174.11412 
L 752.222057 174.11412 
z
" style="fill:#1f77b4;opacity:0.4;"/>
   </g>
   <g id="patch_44">
    <path clip-path="url(#p59bf37f597)" d="M 758.302692 174.2 
L 764.383328 174.2 
L 764.383328 174.165648 
L 758.302692 174.165648 
z
" style="fill:#1f77b4;opacity:0.4;"/>
   </g>
   <g id="patch_45">
    <path clip-path="url(#p59bf37f597)" d="M 764.383328 174.2 
L 770.463963 174.2 
L 770.463963 174.165648 
L 764.383328 174.165648 
z
" style="fill:#1f77b4;opacity:0.4;"/>
   </g>
   <g id="patch_46">
    <path clip-path="url(#p59bf37f597)" d="M 770.463963 174.2 
L 776.544598 174.2 
L 776.544598 174.182824 
L 770.463963 174.182824 
z
" style="fill:#1f77b4;opacity:0.4;"/>
   </g>
   <g id="patch_47">
    <path clip-path="url(#p59bf37f597)" d="M 776.544598 174.2 
L 782.625233 174.2 
L 782.625233 174.165648 
L 776.544598 174.165648 
z
" style="fill:#1f77b4;opacity:0.4;"/>
   </g>
   <g id="patch_48">
    <path clip-path="url(#p59bf37f597)" d="M 782.625233 174.2 
L 788.705868 174.2 
L 788.705868 174.182824 
L 782.625233 174.182824 
z
" style="fill:#1f77b4;opacity:0.4;"/>
   </g>
   <g id="patch_49">
    <path clip-path="url(#p59bf37f597)" d="M 788.705868 174.2 
L 794.786504 174.2 
L 794.786504 174.182824 
L 788.705868 174.182824 
z
" style="fill:#1f77b4;opacity:0.4;"/>
   </g>
   <g id="patch_50">
    <path clip-path="url(#p59bf37f597)" d="M 794.786504 174.2 
L 800.867139 174.2 
L 800.867139 174.2 
L 794.786504 174.2 
z
" style="fill:#1f77b4;opacity:0.4;"/>
   </g>
   <g id="patch_51">
    <path clip-path="url(#p59bf37f597)" d="M 800.867139 174.2 
L 806.947774 174.2 
L 806.947774 174.182824 
L 800.867139 174.182824 
z
" style="fill:#1f77b4;opacity:0.4;"/>
   </g>
   <g id="patch_52">
    <path clip-path="url(#p59bf37f597)" d="M 806.947774 174.2 
L 813.028409 174.2 
L 813.028409 174.182824 
L 806.947774 174.182824 
z
" style="fill:#1f77b4;opacity:0.4;"/>
   </g>
   <g id="patch_53">
    <path clip-path="url(#p59bf37f597)" d="M 79.596591 174.2 
L 88.184117 174.2 
L 88.184117 174.182824 
L 79.596591 174.182824 
z
" style="fill:#ff7f0e;opacity:0.4;"/>
   </g>
   <g id="patch_54">
    <path clip-path="url(#p59bf37f597)" d="M 88.184117 174.2 
L 96.771644 174.2 
L 96.771644 174.2 
L 88.184117 174.2 
z
" style="fill:#ff7f0e;opacity:0.4;"/>
   </g>
   <g id="patch_55">
    <path clip-path="url(#p59bf37f597)" d="M 96.771644 174.2 
L 105.35917 174.2 
L 105.35917 174.2 
L 96.771644 174.2 
z
" style="fill:#ff7f0e;opacity:0.4;"/>
   </g>
   <g id="patch_56">
    <path clip-path="url(#p59bf37f597)" d="M 105.35917 174.2 
L 113.946696 174.2 
L 113.946696 174.2 
L 105.35917 174.2 
z
" style="fill:#ff7f0e;opacity:0.4;"/>
   </g>
   <g id="patch_57">
    <path clip-path="url(#p59bf37f597)" d="M 113.946696 174.2 
L 122.534223 174.2 
L 122.534223 174.2 
L 113.946696 174.2 
z
" style="fill:#ff7f0e;opacity:0.4;"/>
   </g>
   <g id="patch_58">
    <path clip-path="url(#p59bf37f597)" d="M 122.534223 174.2 
L 131.121749 174.2 
L 131.121749 174.2 
L 122.534223 174.2 
z
" style="fill:#ff7f0e;opacity:0.4;"/>
   </g>
   <g id="patch_59">
    <path clip-path="url(#p59bf37f597)" d="M 131.121749 174.2 
L 139.709275 174.2 
L 139.709275 174.2 
L 131.121749 174.2 
z
" style="fill:#ff7f0e;opacity:0.4;"/>
   </g>
   <g id="patch_60">
    <path clip-path="url(#p59bf37f597)" d="M 139.709275 174.2 
L 148.296802 174.2 
L 148.296802 174.2 
L 139.709275 174.2 
z
" style="fill:#ff7f0e;opacity:0.4;"/>
   </g>
   <g id="patch_61">
    <path clip-path="url(#p59bf37f597)" d="M 148.296802 174.2 
L 156.884328 174.2 
L 156.884328 174.2 
L 148.296802 174.2 
z
" style="fill:#ff7f0e;opacity:0.4;"/>
   </g>
   <g id="patch_62">
    <path clip-path="url(#p59bf37f597)" d="M 156.884328 174.2 
L 165.471854 174.2 
L 165.471854 174.2 
L 156.884328 174.2 
z
" style="fill:#ff7f0e;opacity:0.4;"/>
   </g>
   <g id="patch_63">
    <path clip-path="url(#p59bf37f597)" d="M 165.471854 174.2 
L 174.059381 174.2 
L 174.059381 174.2 
L 165.471854 174.2 
z
" style="fill:#ff7f0e;opacity:0.4;"/>
   </g>
   <g id="patch_64">
    <path clip-path="url(#p59bf37f597)" d="M 174.059381 174.2 
L 182.646907 174.2 
L 182.646907 174.2 
L 174.059381 174.2 
z
" style="fill:#ff7f0e;opacity:0.4;"/>
   </g>
   <g id="patch_65">
    <path clip-path="url(#p59bf37f597)" d="M 182.646907 174.2 
L 191.234434 174.2 
L 191.234434 174.2 
L 182.646907 174.2 
z
" style="fill:#ff7f0e;opacity:0.4;"/>
   </g>
   <g id="patch_66">
    <path clip-path="url(#p59bf37f597)" d="M 191.234434 174.2 
L 199.82196 174.2 
L 199.82196 174.2 
L 191.234434 174.2 
z
" style="fill:#ff7f0e;opacity:0.4;"/>
   </g>
   <g id="patch_67">
    <path clip-path="url(#p59bf37f597)" d="M 199.82196 174.2 
L 208.409486 174.2 
L 208.409486 174.2 
L 199.82196 174.2 
z
" style="fill:#ff7f0e;opacity:0.4;"/>
   </g>
   <g id="patch_68">
    <path clip-path="url(#p59bf37f597)" d="M 208.409486 174.2 
L 216.997013 174.2 
L 216.997013 174.2 
L 208.409486 174.2 
z
" style="fill:#ff7f0e;opacity:0.4;"/>
   </g>
   <g id="patch_69">
    <path clip-path="url(#p59bf37f597)" d="M 216.997013 174.2 
L 225.584539 174.2 
L 225.584539 174.2 
L 216.997013 174.2 
z
" style="fill:#ff7f0e;opacity:0.4;"/>
   </g>
   <g id="patch_70">
    <path clip-path="url(#p59bf37f597)" d="M 225.584539 174.2 
L 234.172065 174.2 
L 234.172065 174.2 
L 225.584539 174.2 
z
" style="fill:#ff7f0e;opacity:0.4;"/>
   </g>
   <g id="patch_71">
    <path clip-path="url(#p59bf37f597)" d="M 234.172065 174.2 
L 242.759592 174.2 
L 242.759592 174.2 
L 234.172065 174.2 
z
" style="fill:#ff7f0e;opacity:0.4;"/>
   </g>
   <g id="patch_72">
    <path clip-path="url(#p59bf37f597)" d="M 242.759592 174.2 
L 251.347118 174.2 
L 251.347118 174.2 
L 242.759592 174.2 
z
" style="fill:#ff7f0e;opacity:0.4;"/>
   </g>
   <g id="patch_73">
    <path clip-path="url(#p59bf37f597)" d="M 251.347118 174.2 
L 259.934644 174.2 
L 259.934644 174.182824 
L 251.347118 174.182824 
z
" style="fill:#ff7f0e;opacity:0.4;"/>
   </g>
   <g id="patch_74">
    <path clip-path="url(#p59bf37f597)" d="M 259.934644 174.2 
L 268.522171 174.2 
L 268.522171 174.2 
L 259.934644 174.2 
z
" style="fill:#ff7f0e;opacity:0.4;"/>
   </g>
   <g id="patch_75">
    <path clip-path="url(#p59bf37f597)" d="M 268.522171 174.2 
L 277.109697 174.2 
L 277.109697 174.2 
L 268.522171 174.2 
z
" style="fill:#ff7f0e;opacity:0.4;"/>
   </g>
   <g id="patch_76">
    <path clip-path="url(#p59bf37f597)" d="M 277.109697 174.2 
L 285.697224 174.2 
L 285.697224 174.2 
L 277.109697 174.2 
z
" style="fill:#ff7f0e;opacity:0.4;"/>
   </g>
   <g id="patch_77">
    <path clip-path="url(#p59bf37f597)" d="M 285.697224 174.2 
L 294.28475 174.2 
L 294.28475 174.182824 
L 285.697224 174.182824 
z
" style="fill:#ff7f0e;opacity:0.4;"/>
   </g>
   <g id="patch_78">
    <path clip-path="url(#p59bf37f597)" d="M 294.28475 174.2 
L 302.872276 174.2 
L 302.872276 174.2 
L 294.28475 174.2 
z
" style="fill:#ff7f0e;opacity:0.4;"/>
   </g>
   <g id="patch_79">
    <path clip-path="url(#p59bf37f597)" d="M 302.872276 174.2 
L 311.459803 174.2 
L 311.459803 174.2 
L 302.872276 174.2 
z
" style="fill:#ff7f0e;opacity:0.4;"/>
   </g>
   <g id="patch_80">
    <path clip-path="url(#p59bf37f597)" d="M 311.459803 174.2 
L 320.047329 174.2 
L 320.047329 174.165648 
L 311.459803 174.165648 
z
" style="fill:#ff7f0e;opacity:0.4;"/>
   </g>
   <g id="patch_81">
    <path clip-path="url(#p59bf37f597)" d="M 320.047329 174.2 
L 328.634855 174.2 
L 328.634855 174.182824 
L 320.047329 174.182824 
z
" style="fill:#ff7f0e;opacity:0.4;"/>
   </g>
   <g id="patch_82">
    <path clip-path="url(#p59bf37f597)" d="M 328.634855 174.2 
L 337.222382 174.2 
L 337.222382 174.131296 
L 328.634855 174.131296 
z
" style="fill:#ff7f0e;opacity:0.4;"/>
   </g>
   <g id="patch_83">
    <path clip-path="url(#p59bf37f597)" d="M 337.222382 174.2 
L 345.809908 174.2 
L 345.809908 174.165648 
L 337.222382 174.165648 
z
" style="fill:#ff7f0e;opacity:0.4;"/>
   </g>
   <g id="patch_84">
    <path clip-path="url(#p59bf37f597)" d="M 345.809908 174.2 
L 354.397434 174.2 
L 354.397434 174.2 
L 345.809908 174.2 
z
" style="fill:#ff7f0e;opacity:0.4;"/>
   </g>
   <g id="patch_85">
    <path clip-path="url(#p59bf37f597)" d="M 354.397434 174.2 
L 362.984961 174.2 
L 362.984961 174.182824 
L 354.397434 174.182824 
z
" style="fill:#ff7f0e;opacity:0.4;"/>
   </g>
   <g id="patch_86">
    <path clip-path="url(#p59bf37f597)" d="M 362.984961 174.2 
L 371.572487 174.2 
L 371.572487 174.148472 
L 362.984961 174.148472 
z
" style="fill:#ff7f0e;opacity:0.4;"/>
   </g>
   <g id="patch_87">
    <path clip-path="url(#p59bf37f597)" d="M 371.572487 174.2 
L 380.160013 174.2 
L 380.160013 174.045416 
L 371.572487 174.045416 
z
" style="fill:#ff7f0e;opacity:0.4;"/>
   </g>
   <g id="patch_88">
    <path clip-path="url(#p59bf37f597)" d="M 380.160013 174.2 
L 388.74754 174.2 
L 388.74754 174.165648 
L 380.160013 174.165648 
z
" style="fill:#ff7f0e;opacity:0.4;"/>
   </g>
   <g id="patch_89">
    <path clip-path="url(#p59bf37f597)" d="M 388.74754 174.2 
L 397.335066 174.2 
L 397.335066 174.148472 
L 388.74754 174.148472 
z
" style="fill:#ff7f0e;opacity:0.4;"/>
   </g>
   <g id="patch_90">
    <path clip-path="url(#p59bf37f597)" d="M 397.335066 174.2 
L 405.922593 174.2 
L 405.922593 174.148472 
L 397.335066 174.148472 
z
" style="fill:#ff7f0e;opacity:0.4;"/>
   </g>
   <g id="patch_91">
    <path clip-path="url(#p59bf37f597)" d="M 405.922593 174.2 
L 414.510119 174.2 
L 414.510119 174.045416 
L 405.922593 174.045416 
z
" style="fill:#ff7f0e;opacity:0.4;"/>
   </g>
   <g id="patch_92">
    <path clip-path="url(#p59bf37f597)" d="M 414.510119 174.2 
L 423.097645 174.2 
L 423.097645 174.11412 
L 414.510119 174.11412 
z
" style="fill:#ff7f0e;opacity:0.4;"/>
   </g>
   <g id="patch_93">
    <path clip-path="url(#p59bf37f597)" d="M 423.097645 174.2 
L 431.685172 174.2 
L 431.685172 174.11412 
L 423.097645 174.11412 
z
" style="fill:#ff7f0e;opacity:0.4;"/>
   </g>
   <g id="patch_94">
    <path clip-path="url(#p59bf37f597)" d="M 431.685172 174.2 
L 440.272698 174.2 
L 440.272698 174.079768 
L 431.685172 174.079768 
z
" style="fill:#ff7f0e;opacity:0.4;"/>
   </g>
   <g id="patch_95">
    <path clip-path="url(#p59bf37f597)" d="M 440.272698 174.2 
L 448.860224 174.2 
L 448.860224 173.856481 
L 440.272698 173.856481 
z
" style="fill:#ff7f0e;opacity:0.4;"/>
   </g>
   <g id="patch_96">
    <path clip-path="url(#p59bf37f597)" d="M 448.860224 174.2 
L 457.447751 174.2 
L 457.447751 173.959536 
L 448.860224 173.959536 
z
" style="fill:#ff7f0e;opacity:0.4;"/>
   </g>
   <g id="patch_97">
    <path clip-path="url(#p59bf37f597)" d="M 457.447751 174.2 
L 466.035277 174.2 
L 466.035277 173.822129 
L 457.447751 173.822129 
z
" style="fill:#ff7f0e;opacity:0.4;"/>
   </g>
   <g id="patch_98">
    <path clip-path="url(#p59bf37f597)" d="M 466.035277 174.2 
L 474.622803 174.2 
L 474.622803 173.770601 
L 466.035277 173.770601 
z
" style="fill:#ff7f0e;opacity:0.4;"/>
   </g>
   <g id="patch_99">
    <path clip-path="url(#p59bf37f597)" d="M 474.622803 174.2 
L 483.21033 174.2 
L 483.21033 173.444257 
L 474.622803 173.444257 
z
" style="fill:#ff7f0e;opacity:0.4;"/>
   </g>
   <g id="patch_100">
    <path clip-path="url(#p59bf37f597)" d="M 483.21033 174.2 
L 491.797856 174.2 
L 491.797856 172.705691 
L 483.21033 172.705691 
z
" style="fill:#ff7f0e;opacity:0.4;"/>
   </g>
   <g id="patch_101">
    <path clip-path="url(#p59bf37f597)" d="M 491.797856 174.2 
L 500.385382 174.2 
L 500.385382 171.709485 
L 491.797856 171.709485 
z
" style="fill:#ff7f0e;opacity:0.4;"/>
   </g>
   <g id="patch_102">
    <path clip-path="url(#p59bf37f597)" d="M 500.385382 174.2 
L 508.972909 174.2 
L 508.972909 169.596841 
L 500.385382 169.596841 
z
" style="fill:#ff7f0e;opacity:0.4;"/>
   </g>
   <g id="matplotlib.axis_1">
    <g id="xtick_1">
     <g id="line2d_1">
      <defs>
       <path d="M 0 0 
L 0 3.5 
" id="m0bfa9bfb72" style="stroke:#000000;stroke-width:0.8;"/>
      </defs>
      <g>
       <use style="stroke:#000000;stroke-width:0.8;" x="197.329033" xlink:href="#m0bfa9bfb72" y="174.2"/>
      </g>
     </g>
     <g id="text_1">
      <!-- −20 -->
      <defs>
       <path d="M 10.59375 35.5 
L 73.1875 35.5 
L 73.1875 27.203125 
L 10.59375 27.203125 
z
" id="DejaVuSans-2212"/>
       <path d="M 19.1875 8.296875 
L 53.609375 8.296875 
L 53.609375 0 
L 7.328125 0 
L 7.328125 8.296875 
Q 12.9375 14.109375 22.625 23.890625 
Q 32.328125 33.6875 34.8125 36.53125 
Q 39.546875 41.84375 41.421875 45.53125 
Q 43.3125 49.21875 43.3125 52.78125 
Q 43.3125 58.59375 39.234375 62.25 
Q 35.15625 65.921875 28.609375 65.921875 
Q 23.96875 65.921875 18.8125 64.3125 
Q 13.671875 62.703125 7.8125 59.421875 
L 7.8125 69.390625 
Q 13.765625 71.78125 18.9375 73 
Q 24.125 74.21875 28.421875 74.21875 
Q 39.75 74.21875 46.484375 68.546875 
Q 53.21875 62.890625 53.21875 53.421875 
Q 53.21875 48.921875 51.53125 44.890625 
Q 49.859375 40.875 45.40625 35.40625 
Q 44.1875 33.984375 37.640625 27.21875 
Q 31.109375 20.453125 19.1875 8.296875 
z
" id="DejaVuSans-32"/>
       <path d="M 31.78125 66.40625 
Q 24.171875 66.40625 20.328125 58.90625 
Q 16.5 51.421875 16.5 36.375 
Q 16.5 21.390625 20.328125 13.890625 
Q 24.171875 6.390625 31.78125 6.390625 
Q 39.453125 6.390625 43.28125 13.890625 
Q 47.125 21.390625 47.125 36.375 
Q 47.125 51.421875 43.28125 58.90625 
Q 39.453125 66.40625 31.78125 66.40625 
z
M 31.78125 74.21875 
Q 44.046875 74.21875 50.515625 64.515625 
Q 56.984375 54.828125 56.984375 36.375 
Q 56.984375 17.96875 50.515625 8.265625 
Q 44.046875 -1.421875 31.78125 -1.421875 
Q 19.53125 -1.421875 13.0625 8.265625 
Q 6.59375 17.96875 6.59375 36.375 
Q 6.59375 54.828125 13.0625 64.515625 
Q 19.53125 74.21875 31.78125 74.21875 
z
" id="DejaVuSans-30"/>
      </defs>
      <g transform="translate(186.776689 188.798438)scale(0.1 -0.1)">
       <use xlink:href="#DejaVuSans-2212"/>
       <use x="83.789062" xlink:href="#DejaVuSans-32"/>
       <use x="147.412109" xlink:href="#DejaVuSans-30"/>
      </g>
     </g>
    </g>
    <g id="xtick_2">
     <g id="line2d_2">
      <g>
       <use style="stroke:#000000;stroke-width:0.8;" x="353.162841" xlink:href="#m0bfa9bfb72" y="174.2"/>
      </g>
     </g>
     <g id="text_2">
      <!-- −10 -->
      <defs>
       <path d="M 12.40625 8.296875 
L 28.515625 8.296875 
L 28.515625 63.921875 
L 10.984375 60.40625 
L 10.984375 69.390625 
L 28.421875 72.90625 
L 38.28125 72.90625 
L 38.28125 8.296875 
L 54.390625 8.296875 
L 54.390625 0 
L 12.40625 0 
z
" id="DejaVuSans-31"/>
      </defs>
      <g transform="translate(342.610497 188.798438)scale(0.1 -0.1)">
       <use xlink:href="#DejaVuSans-2212"/>
       <use x="83.789062" xlink:href="#DejaVuSans-31"/>
       <use x="147.412109" xlink:href="#DejaVuSans-30"/>
      </g>
     </g>
    </g>
    <g id="xtick_3">
     <g id="line2d_3">
      <g>
       <use style="stroke:#000000;stroke-width:0.8;" x="508.996649" xlink:href="#m0bfa9bfb72" y="174.2"/>
      </g>
     </g>
     <g id="text_3">
      <!-- 0 -->
      <g transform="translate(505.815399 188.798438)scale(0.1 -0.1)">
       <use xlink:href="#DejaVuSans-30"/>
      </g>
     </g>
    </g>
    <g id="xtick_4">
     <g id="line2d_4">
      <g>
       <use style="stroke:#000000;stroke-width:0.8;" x="664.830458" xlink:href="#m0bfa9bfb72" y="174.2"/>
      </g>
     </g>
     <g id="text_4">
      <!-- 10 -->
      <g transform="translate(658.467958 188.798438)scale(0.1 -0.1)">
       <use xlink:href="#DejaVuSans-31"/>
       <use x="63.623047" xlink:href="#DejaVuSans-30"/>
      </g>
     </g>
    </g>
    <g id="xtick_5">
     <g id="line2d_5">
      <g>
       <use style="stroke:#000000;stroke-width:0.8;" x="820.664266" xlink:href="#m0bfa9bfb72" y="174.2"/>
      </g>
     </g>
     <g id="text_5">
      <!-- 20 -->
      <g transform="translate(814.301766 188.798438)scale(0.1 -0.1)">
       <use xlink:href="#DejaVuSans-32"/>
       <use x="63.623047" xlink:href="#DejaVuSans-30"/>
      </g>
     </g>
    </g>
    <g id="text_6">
     <!-- value -->
     <defs>
      <path d="M 2.984375 54.6875 
L 12.5 54.6875 
L 29.59375 8.796875 
L 46.6875 54.6875 
L 56.203125 54.6875 
L 35.6875 0 
L 23.484375 0 
z
" id="DejaVuSans-76"/>
      <path d="M 34.28125 27.484375 
Q 23.390625 27.484375 19.1875 25 
Q 14.984375 22.515625 14.984375 16.5 
Q 14.984375 11.71875 18.140625 8.90625 
Q 21.296875 6.109375 26.703125 6.109375 
Q 34.1875 6.109375 38.703125 11.40625 
Q 43.21875 16.703125 43.21875 25.484375 
L 43.21875 27.484375 
z
M 52.203125 31.203125 
L 52.203125 0 
L 43.21875 0 
L 43.21875 8.296875 
Q 40.140625 3.328125 35.546875 0.953125 
Q 30.953125 -1.421875 24.3125 -1.421875 
Q 15.921875 -1.421875 10.953125 3.296875 
Q 6 8.015625 6 15.921875 
Q 6 25.140625 12.171875 29.828125 
Q 18.359375 34.515625 30.609375 34.515625 
L 43.21875 34.515625 
L 43.21875 35.40625 
Q 43.21875 41.609375 39.140625 45 
Q 35.0625 48.390625 27.6875 48.390625 
Q 23 48.390625 18.546875 47.265625 
Q 14.109375 46.140625 10.015625 43.890625 
L 10.015625 52.203125 
Q 14.9375 54.109375 19.578125 55.046875 
Q 24.21875 56 28.609375 56 
Q 40.484375 56 46.34375 49.84375 
Q 52.203125 43.703125 52.203125 31.203125 
z
" id="DejaVuSans-61"/>
      <path d="M 9.421875 75.984375 
L 18.40625 75.984375 
L 18.40625 0 
L 9.421875 0 
z
" id="DejaVuSans-6c"/>
      <path d="M 8.5 21.578125 
L 8.5 54.6875 
L 17.484375 54.6875 
L 17.484375 21.921875 
Q 17.484375 14.15625 20.5 10.265625 
Q 23.53125 6.390625 29.59375 6.390625 
Q 36.859375 6.390625 41.078125 11.03125 
Q 45.3125 15.671875 45.3125 23.6875 
L 45.3125 54.6875 
L 54.296875 54.6875 
L 54.296875 0 
L 45.3125 0 
L 45.3125 8.40625 
Q 42.046875 3.421875 37.71875 1 
Q 33.40625 -1.421875 27.6875 -1.421875 
Q 18.265625 -1.421875 13.375 4.4375 
Q 8.5 10.296875 8.5 21.578125 
z
M 31.109375 56 
z
" id="DejaVuSans-75"/>
      <path d="M 56.203125 29.59375 
L 56.203125 25.203125 
L 14.890625 25.203125 
Q 15.484375 15.921875 20.484375 11.0625 
Q 25.484375 6.203125 34.421875 6.203125 
Q 39.59375 6.203125 44.453125 7.46875 
Q 49.3125 8.734375 54.109375 11.28125 
L 54.109375 2.78125 
Q 49.265625 0.734375 44.1875 -0.34375 
Q 39.109375 -1.421875 33.890625 -1.421875 
Q 20.796875 -1.421875 13.15625 6.1875 
Q 5.515625 13.8125 5.515625 26.8125 
Q 5.515625 40.234375 12.765625 48.109375 
Q 20.015625 56 32.328125 56 
Q 43.359375 56 49.78125 48.890625 
Q 56.203125 41.796875 56.203125 29.59375 
z
M 47.21875 32.234375 
Q 47.125 39.59375 43.09375 43.984375 
Q 39.0625 48.390625 32.421875 48.390625 
Q 24.90625 48.390625 20.390625 44.140625 
Q 15.875 39.890625 15.1875 32.171875 
z
" id="DejaVuSans-65"/>
     </defs>
     <g transform="translate(432.654688 202.476562)scale(0.1 -0.1)">
      <use xlink:href="#DejaVuSans-76"/>
      <use x="59.179688" xlink:href="#DejaVuSans-61"/>
      <use x="120.458984" xlink:href="#DejaVuSans-6c"/>
      <use x="148.242188" xlink:href="#DejaVuSans-75"/>
      <use x="211.621094" xlink:href="#DejaVuSans-65"/>
     </g>
    </g>
   </g>
   <g id="matplotlib.axis_2">
    <g id="ytick_1">
     <g id="line2d_6">
      <defs>
       <path d="M 0 0 
L -3.5 0 
" id="m26f71b5056" style="stroke:#000000;stroke-width:0.8;"/>
      </defs>
      <g>
       <use style="stroke:#000000;stroke-width:0.8;" x="42.925" xlink:href="#m26f71b5056" y="174.2"/>
      </g>
     </g>
     <g id="text_7">
      <!-- 0 -->
      <g transform="translate(29.5625 177.999219)scale(0.1 -0.1)">
       <use xlink:href="#DejaVuSans-30"/>
      </g>
     </g>
    </g>
    <g id="ytick_2">
     <g id="line2d_7">
      <g>
       <use style="stroke:#000000;stroke-width:0.8;" x="42.925" xlink:href="#m26f71b5056" y="139.848065"/>
      </g>
     </g>
     <g id="text_8">
      <!-- 2000 -->
      <g transform="translate(10.475 143.647284)scale(0.1 -0.1)">
       <use xlink:href="#DejaVuSans-32"/>
       <use x="63.623047" xlink:href="#DejaVuSans-30"/>
       <use x="127.246094" xlink:href="#DejaVuSans-30"/>
       <use x="190.869141" xlink:href="#DejaVuSans-30"/>
      </g>
     </g>
    </g>
    <g id="ytick_3">
     <g id="line2d_8">
      <g>
       <use style="stroke:#000000;stroke-width:0.8;" x="42.925" xlink:href="#m26f71b5056" y="105.49613"/>
      </g>
     </g>
     <g id="text_9">
      <!-- 4000 -->
      <defs>
       <path d="M 37.796875 64.3125 
L 12.890625 25.390625 
L 37.796875 25.390625 
z
M 35.203125 72.90625 
L 47.609375 72.90625 
L 47.609375 25.390625 
L 58.015625 25.390625 
L 58.015625 17.1875 
L 47.609375 17.1875 
L 47.609375 0 
L 37.796875 0 
L 37.796875 17.1875 
L 4.890625 17.1875 
L 4.890625 26.703125 
z
" id="DejaVuSans-34"/>
      </defs>
      <g transform="translate(10.475 109.295349)scale(0.1 -0.1)">
       <use xlink:href="#DejaVuSans-34"/>
       <use x="63.623047" xlink:href="#DejaVuSans-30"/>
       <use x="127.246094" xlink:href="#DejaVuSans-30"/>
       <use x="190.869141" xlink:href="#DejaVuSans-30"/>
      </g>
     </g>
    </g>
    <g id="ytick_4">
     <g id="line2d_9">
      <g>
       <use style="stroke:#000000;stroke-width:0.8;" x="42.925" xlink:href="#m26f71b5056" y="71.144195"/>
      </g>
     </g>
     <g id="text_10">
      <!-- 6000 -->
      <defs>
       <path d="M 33.015625 40.375 
Q 26.375 40.375 22.484375 35.828125 
Q 18.609375 31.296875 18.609375 23.390625 
Q 18.609375 15.53125 22.484375 10.953125 
Q 26.375 6.390625 33.015625 6.390625 
Q 39.65625 6.390625 43.53125 10.953125 
Q 47.40625 15.53125 47.40625 23.390625 
Q 47.40625 31.296875 43.53125 35.828125 
Q 39.65625 40.375 33.015625 40.375 
z
M 52.59375 71.296875 
L 52.59375 62.3125 
Q 48.875 64.0625 45.09375 64.984375 
Q 41.3125 65.921875 37.59375 65.921875 
Q 27.828125 65.921875 22.671875 59.328125 
Q 17.53125 52.734375 16.796875 39.40625 
Q 19.671875 43.65625 24.015625 45.921875 
Q 28.375 48.1875 33.59375 48.1875 
Q 44.578125 48.1875 50.953125 41.515625 
Q 57.328125 34.859375 57.328125 23.390625 
Q 57.328125 12.15625 50.6875 5.359375 
Q 44.046875 -1.421875 33.015625 -1.421875 
Q 20.359375 -1.421875 13.671875 8.265625 
Q 6.984375 17.96875 6.984375 36.375 
Q 6.984375 53.65625 15.1875 63.9375 
Q 23.390625 74.21875 37.203125 74.21875 
Q 40.921875 74.21875 44.703125 73.484375 
Q 48.484375 72.75 52.59375 71.296875 
z
" id="DejaVuSans-36"/>
      </defs>
      <g transform="translate(10.475 74.943414)scale(0.1 -0.1)">
       <use xlink:href="#DejaVuSans-36"/>
       <use x="63.623047" xlink:href="#DejaVuSans-30"/>
       <use x="127.246094" xlink:href="#DejaVuSans-30"/>
       <use x="190.869141" xlink:href="#DejaVuSans-30"/>
      </g>
     </g>
    </g>
    <g id="ytick_5">
     <g id="line2d_10">
      <g>
       <use style="stroke:#000000;stroke-width:0.8;" x="42.925" xlink:href="#m26f71b5056" y="36.79226"/>
      </g>
     </g>
     <g id="text_11">
      <!-- 8000 -->
      <defs>
       <path d="M 31.78125 34.625 
Q 24.75 34.625 20.71875 30.859375 
Q 16.703125 27.09375 16.703125 20.515625 
Q 16.703125 13.921875 20.71875 10.15625 
Q 24.75 6.390625 31.78125 6.390625 
Q 38.8125 6.390625 42.859375 10.171875 
Q 46.921875 13.96875 46.921875 20.515625 
Q 46.921875 27.09375 42.890625 30.859375 
Q 38.875 34.625 31.78125 34.625 
z
M 21.921875 38.8125 
Q 15.578125 40.375 12.03125 44.71875 
Q 8.5 49.078125 8.5 55.328125 
Q 8.5 64.0625 14.71875 69.140625 
Q 20.953125 74.21875 31.78125 74.21875 
Q 42.671875 74.21875 48.875 69.140625 
Q 55.078125 64.0625 55.078125 55.328125 
Q 55.078125 49.078125 51.53125 44.71875 
Q 48 40.375 41.703125 38.8125 
Q 48.828125 37.15625 52.796875 32.3125 
Q 56.78125 27.484375 56.78125 20.515625 
Q 56.78125 9.90625 50.3125 4.234375 
Q 43.84375 -1.421875 31.78125 -1.421875 
Q 19.734375 -1.421875 13.25 4.234375 
Q 6.78125 9.90625 6.78125 20.515625 
Q 6.78125 27.484375 10.78125 32.3125 
Q 14.796875 37.15625 21.921875 38.8125 
z
M 18.3125 54.390625 
Q 18.3125 48.734375 21.84375 45.5625 
Q 25.390625 42.390625 31.78125 42.390625 
Q 38.140625 42.390625 41.71875 45.5625 
Q 45.3125 48.734375 45.3125 54.390625 
Q 45.3125 60.0625 41.71875 63.234375 
Q 38.140625 66.40625 31.78125 66.40625 
Q 25.390625 66.40625 21.84375 63.234375 
Q 18.3125 60.0625 18.3125 54.390625 
z
" id="DejaVuSans-38"/>
      </defs>
      <g transform="translate(10.475 40.591479)scale(0.1 -0.1)">
       <use xlink:href="#DejaVuSans-38"/>
       <use x="63.623047" xlink:href="#DejaVuSans-30"/>
       <use x="127.246094" xlink:href="#DejaVuSans-30"/>
       <use x="190.869141" xlink:href="#DejaVuSans-30"/>
      </g>
     </g>
    </g>
   </g>
   <g id="patch_103">
    <path d="M 42.925 174.2 
L 42.925 24.8 
" style="fill:none;stroke:#000000;stroke-linecap:square;stroke-linejoin:miter;stroke-width:0.8;"/>
   </g>
   <g id="patch_104">
    <path d="M 42.925 174.2 
L 849.7 174.2 
" style="fill:none;stroke:#000000;stroke-linecap:square;stroke-linejoin:miter;stroke-width:0.8;"/>
   </g>
   <g id="text_12">
    <!-- year_month = 2017-2 -->
    <defs>
     <path d="M 32.171875 -5.078125 
Q 28.375 -14.84375 24.75 -17.8125 
Q 21.140625 -20.796875 15.09375 -20.796875 
L 7.90625 -20.796875 
L 7.90625 -13.28125 
L 13.1875 -13.28125 
Q 16.890625 -13.28125 18.9375 -11.515625 
Q 21 -9.765625 23.484375 -3.21875 
L 25.09375 0.875 
L 2.984375 54.6875 
L 12.5 54.6875 
L 29.59375 11.921875 
L 46.6875 54.6875 
L 56.203125 54.6875 
z
" id="DejaVuSans-79"/>
     <path d="M 41.109375 46.296875 
Q 39.59375 47.171875 37.8125 47.578125 
Q 36.03125 48 33.890625 48 
Q 26.265625 48 22.1875 43.046875 
Q 18.109375 38.09375 18.109375 28.8125 
L 18.109375 0 
L 9.078125 0 
L 9.078125 54.6875 
L 18.109375 54.6875 
L 18.109375 46.1875 
Q 20.953125 51.171875 25.484375 53.578125 
Q 30.03125 56 36.53125 56 
Q 37.453125 56 38.578125 55.875 
Q 39.703125 55.765625 41.0625 55.515625 
z
" id="DejaVuSans-72"/>
     <path d="M 50.984375 -16.609375 
L 50.984375 -23.578125 
L -0.984375 -23.578125 
L -0.984375 -16.609375 
z
" id="DejaVuSans-5f"/>
     <path d="M 52 44.1875 
Q 55.375 50.25 60.0625 53.125 
Q 64.75 56 71.09375 56 
Q 79.640625 56 84.28125 50.015625 
Q 88.921875 44.046875 88.921875 33.015625 
L 88.921875 0 
L 79.890625 0 
L 79.890625 32.71875 
Q 79.890625 40.578125 77.09375 44.375 
Q 74.3125 48.1875 68.609375 48.1875 
Q 61.625 48.1875 57.5625 43.546875 
Q 53.515625 38.921875 53.515625 30.90625 
L 53.515625 0 
L 44.484375 0 
L 44.484375 32.71875 
Q 44.484375 40.625 41.703125 44.40625 
Q 38.921875 48.1875 33.109375 48.1875 
Q 26.21875 48.1875 22.15625 43.53125 
Q 18.109375 38.875 18.109375 30.90625 
L 18.109375 0 
L 9.078125 0 
L 9.078125 54.6875 
L 18.109375 54.6875 
L 18.109375 46.1875 
Q 21.1875 51.21875 25.484375 53.609375 
Q 29.78125 56 35.6875 56 
Q 41.65625 56 45.828125 52.96875 
Q 50 49.953125 52 44.1875 
z
" id="DejaVuSans-6d"/>
     <path d="M 30.609375 48.390625 
Q 23.390625 48.390625 19.1875 42.75 
Q 14.984375 37.109375 14.984375 27.296875 
Q 14.984375 17.484375 19.15625 11.84375 
Q 23.34375 6.203125 30.609375 6.203125 
Q 37.796875 6.203125 41.984375 11.859375 
Q 46.1875 17.53125 46.1875 27.296875 
Q 46.1875 37.015625 41.984375 42.703125 
Q 37.796875 48.390625 30.609375 48.390625 
z
M 30.609375 56 
Q 42.328125 56 49.015625 48.375 
Q 55.71875 40.765625 55.71875 27.296875 
Q 55.71875 13.875 49.015625 6.21875 
Q 42.328125 -1.421875 30.609375 -1.421875 
Q 18.84375 -1.421875 12.171875 6.21875 
Q 5.515625 13.875 5.515625 27.296875 
Q 5.515625 40.765625 12.171875 48.375 
Q 18.84375 56 30.609375 56 
z
" id="DejaVuSans-6f"/>
     <path d="M 54.890625 33.015625 
L 54.890625 0 
L 45.90625 0 
L 45.90625 32.71875 
Q 45.90625 40.484375 42.875 44.328125 
Q 39.84375 48.1875 33.796875 48.1875 
Q 26.515625 48.1875 22.3125 43.546875 
Q 18.109375 38.921875 18.109375 30.90625 
L 18.109375 0 
L 9.078125 0 
L 9.078125 54.6875 
L 18.109375 54.6875 
L 18.109375 46.1875 
Q 21.34375 51.125 25.703125 53.5625 
Q 30.078125 56 35.796875 56 
Q 45.21875 56 50.046875 50.171875 
Q 54.890625 44.34375 54.890625 33.015625 
z
" id="DejaVuSans-6e"/>
     <path d="M 18.3125 70.21875 
L 18.3125 54.6875 
L 36.8125 54.6875 
L 36.8125 47.703125 
L 18.3125 47.703125 
L 18.3125 18.015625 
Q 18.3125 11.328125 20.140625 9.421875 
Q 21.96875 7.515625 27.59375 7.515625 
L 36.8125 7.515625 
L 36.8125 0 
L 27.59375 0 
Q 17.1875 0 13.234375 3.875 
Q 9.28125 7.765625 9.28125 18.015625 
L 9.28125 47.703125 
L 2.6875 47.703125 
L 2.6875 54.6875 
L 9.28125 54.6875 
L 9.28125 70.21875 
z
" id="DejaVuSans-74"/>
     <path d="M 54.890625 33.015625 
L 54.890625 0 
L 45.90625 0 
L 45.90625 32.71875 
Q 45.90625 40.484375 42.875 44.328125 
Q 39.84375 48.1875 33.796875 48.1875 
Q 26.515625 48.1875 22.3125 43.546875 
Q 18.109375 38.921875 18.109375 30.90625 
L 18.109375 0 
L 9.078125 0 
L 9.078125 75.984375 
L 18.109375 75.984375 
L 18.109375 46.1875 
Q 21.34375 51.125 25.703125 53.5625 
Q 30.078125 56 35.796875 56 
Q 45.21875 56 50.046875 50.171875 
Q 54.890625 44.34375 54.890625 33.015625 
z
" id="DejaVuSans-68"/>
     <path id="DejaVuSans-20"/>
     <path d="M 10.59375 45.40625 
L 73.1875 45.40625 
L 73.1875 37.203125 
L 10.59375 37.203125 
z
M 10.59375 25.484375 
L 73.1875 25.484375 
L 73.1875 17.1875 
L 10.59375 17.1875 
z
" id="DejaVuSans-3d"/>
     <path d="M 8.203125 72.90625 
L 55.078125 72.90625 
L 55.078125 68.703125 
L 28.609375 0 
L 18.3125 0 
L 43.21875 64.59375 
L 8.203125 64.59375 
z
" id="DejaVuSans-37"/>
     <path d="M 4.890625 31.390625 
L 31.203125 31.390625 
L 31.203125 23.390625 
L 4.890625 23.390625 
z
" id="DejaVuSans-2d"/>
    </defs>
    <g transform="translate(391.351563 18.8)scale(0.1 -0.1)">
     <use xlink:href="#DejaVuSans-79"/>
     <use x="59.179688" xlink:href="#DejaVuSans-65"/>
     <use x="120.703125" xlink:href="#DejaVuSans-61"/>
     <use x="181.982422" xlink:href="#DejaVuSans-72"/>
     <use x="223.095703" xlink:href="#DejaVuSans-5f"/>
     <use x="273.095703" xlink:href="#DejaVuSans-6d"/>
     <use x="370.507812" xlink:href="#DejaVuSans-6f"/>
     <use x="431.689453" xlink:href="#DejaVuSans-6e"/>
     <use x="495.068359" xlink:href="#DejaVuSans-74"/>
     <use x="534.277344" xlink:href="#DejaVuSans-68"/>
     <use x="597.65625" xlink:href="#DejaVuSans-20"/>
     <use x="629.443359" xlink:href="#DejaVuSans-3d"/>
     <use x="713.232422" xlink:href="#DejaVuSans-20"/>
     <use x="745.019531" xlink:href="#DejaVuSans-32"/>
     <use x="808.642578" xlink:href="#DejaVuSans-30"/>
     <use x="872.265625" xlink:href="#DejaVuSans-31"/>
     <use x="935.888672" xlink:href="#DejaVuSans-37"/>
     <use x="999.511719" xlink:href="#DejaVuSans-2d"/>
     <use x="1035.595703" xlink:href="#DejaVuSans-32"/>
    </g>
   </g>
  </g>
 </g>
 <defs>
  <clipPath id="p59bf37f597">
   <rect height="149.4" width="806.775" x="42.925" y="24.8"/>
  </clipPath>
 </defs>
</svg>
